<?xml version="1.0" encoding="UTF-8" standalone="no"?><!-- Generator: Gravit.io --><svg xmlns="http://www.w3.org/2000/svg" xmlns:xlink="http://www.w3.org/1999/xlink" style="isolation:isolate" viewBox="0 0 90 90" width="90pt" height="90pt"><defs><clipPath id="_clipPath_FQPnn6eDze5M1Gwksav7s8L6Y7lCzcr7"><rect width="90" height="90"/></clipPath></defs><g clip-path="url(#_clipPath_FQPnn6eDze5M1Gwksav7s8L6Y7lCzcr7)"><clipPath id="_clipPath_hX0lxeGYJLiLeWp5qClZ8SHn7MWnrKQL"><path d=" M 45 90 C 69.853 90 90 69.853 90 45 C 90 20.147 69.853 0 45 0 C 20.147 0 0 20.147 0 45 C 0 69.853 20.147 90 45 90 Z " fill="rgb(255,255,255)"/></clipPath><g clip-path="url(#_clipPath_hX0lxeGYJLiLeWp5qClZ8SHn7MWnrKQL)"><g><path d=" M 45 90 C 69.853 90 90 69.853 90 45 C 90 20.147 69.853 0 45 0 C 20.147 0 0 20.147 0 45 C 0 69.853 20.147 90 45 90 Z " fill="rgb(255,230,238)"/><path d=" M 37.954 33.698 C 37.605 32.302 35.651 31.814 34.465 32.581 C 33.279 33.349 32.791 34.884 32.861 36.349 C 32.93 36.977 33.07 37.605 33.419 38.163 C 34.186 39.419 35.791 39.837 37.256 39.837 C 37.674 45.628 37.814 51.419 37.814 57.14 C 40.256 59.302 43.884 59.93 46.884 58.744 C 47.721 58.395 48.558 57.907 49.116 57.14 C 50.372 55.326 48.977 51.488 51.07 50.512 C 51.977 50.093 53.442 50.442 54.419 50.163 C 55.744 49.814 57.07 49.116 57.907 47.93 C 60.977 43.605 60.419 37.395 60.279 32.442 C 60.209 30.07 60.349 27.698 60.628 25.326 C 60.837 23.302 61.186 21.07 60.07 19.326 C 58.674 17.093 55.674 16.744 53.093 16.605 C 48.767 16.395 44.093 16.395 40.674 19.047 C 38.442 20.861 37.116 23.721 37.256 26.651 C 37.256 27.349 37.395 28.116 36.837 28.605 L 37.954 33.698 L 37.954 33.698 Z " fill="rgb(255,255,255)"/><path d=" M 44.512 22.395 C 48.07 24.837 52.256 27.279 56.442 26.233 C 56.023 30.279 55.674 34.395 55.256 38.442 C 51.419 38.372 47.512 38.233 44.023 39.768 C 43.674 39.907 43.326 40.116 43.186 40.465 C 43.047 40.744 43.047 41.093 43.116 41.442 C 43.326 44.093 43.674 46.744 44.023 49.326 C 42.767 49.395 41.442 49.256 40.186 49.047 C 40.954 50.442 42.279 51.558 43.884 52.047 C 44.233 52.186 44.581 52.256 44.791 52.535 C 44.93 52.744 44.93 53.093 44.861 53.372 C 44.651 55.465 44.442 57.488 44.233 59.581 C 46.186 60.419 48.488 58.954 49.326 57 C 50.163 55.047 49.954 52.884 49.744 50.721 C 51.837 50.581 54 50.302 55.814 49.256 C 58.047 47.93 58.256 46.814 58.814 44.302 C 59.442 41.791 60.558 37.814 60.488 35.233 C 60.349 29.93 60.209 24.558 60.07 19.256 C 59.721 19.326 59.302 19.326 58.954 19.395 L 44.512 22.395 L 44.512 22.395 Z " fill="rgb(225,225,255)"/><path d=" M 45.07 50.233 C 44.581 50.093 44.581 46.954 44.861 46.465 C 45.767 44.651 48.14 45.698 49.744 45.488 C 50.651 45.349 51.628 45.07 52.326 44.442 C 52.954 43.884 53.372 43.186 53.651 42.419 C 54.14 41.233 54.488 39.977 54.628 38.721 C 55.465 39.209 56.442 39.419 57.419 39.349 C 57.907 39.349 58.395 39.209 58.814 39.419 C 59.512 39.767 59.581 40.674 59.512 41.442 C 59.512 42.837 59.372 44.233 58.954 45.558 C 58.116 48.07 55.814 50.093 53.163 50.581 C 51.14 51 49.047 50.512 46.954 50.651 C 46.954 50.721 45.07 50.233 45.07 50.233 Z " fill="rgb(183,183,255)"/><path d=" M 13.186 82.535 C 14.721 76.535 16.535 70.116 21.209 66.07 C 26.093 61.814 33.279 60.907 37.674 56.233 C 39 58.605 41.791 60.07 44.512 59.861 C 47.302 59.651 49.465 57.698 50.651 55.256 C 52.465 57.698 55.535 58.116 58.326 58.744 C 61.326 59.442 63.977 61.326 66 63.628 C 70.535 68.791 71.023 75.558 75.279 80.93 C 76.395 82.326 77.651 83.651 78.558 85.186 C 78.698 85.465 78.837 85.814 78.767 86.163 C 78.698 86.442 78.488 86.581 78.279 86.791 C 75.767 88.814 72.558 89.861 69.419 90.837 C 58.605 94.186 47.093 97.326 36.14 94.465 C 31.326 93.209 26.861 90.837 22.465 88.465 L 13.186 82.535 L 13.186 82.535 Z " fill="rgb(119,119,255)"/><path d=" M 19.116 89.581 C 20.372 86.372 21.558 83.093 22.814 79.884 C 23.372 78.349 24 76.814 25.047 75.558 C 25.256 75.349 25.465 75.07 25.814 75.07 C 26.233 75.07 26.512 75.558 26.651 75.907 C 28.326 79.814 29.163 84.07 29.512 88.256 C 29.651 89.861 29.651 91.675 28.465 92.791 C 27.488 93.768 26.023 93.977 24.698 93.837 C 23.372 93.698 21.977 93.349 20.651 93.488 L 19.116 89.581 L 19.116 89.581 Z " fill="rgb(99,99,235)"/><path d=" M 45.14 59.581 C 45.349 61.744 48.14 62.581 49.326 64.395 C 49.884 65.302 50.093 66.349 50.233 67.395 C 51.279 75.209 50.651 83.163 51 91.116 C 51.07 92.651 51.209 94.256 51.977 95.512 C 54.837 96.279 57.977 95.791 60.837 94.954 C 63.698 94.047 66.419 92.791 69.349 92.023 C 69.907 91.884 70.535 91.674 70.744 91.116 C 70.814 90.768 70.674 90.349 70.535 90 C 69.07 86.372 69 82.395 68.581 78.558 C 68.163 74.721 67.326 70.605 64.744 67.744 C 62.651 65.442 59.651 64.116 56.93 62.721 C 54.14 61.326 51.279 59.512 49.954 56.721 C 49.326 58.256 47.791 59.442 46.116 59.651 L 45.14 59.581 L 45.14 59.581 Z " fill="rgb(99,99,235)"/><path d=" M 32.93 26.302 C 33.14 27.419 33.419 28.535 33.837 29.581 C 34.047 30.07 34.256 30.628 34.535 31.116 C 34.744 31.465 35.233 32.023 35.093 32.442 C 33.837 32.372 32.93 34.395 32.791 35.372 C 32.581 36.907 33.14 38.581 34.395 39.488 C 34.884 39.837 35.442 40.047 36 40.047 C 36.977 42.14 37.465 44.372 37.465 46.605 C 37.465 47.581 37.395 48.558 37.395 49.605 C 37.395 50.791 37.465 51.977 37.465 53.093 C 37.465 53.721 37.674 54.419 37.605 55.116 C 37.465 55.954 36.837 56.302 36.209 56.721 C 36.14 56.791 36.07 56.861 36 56.93 C 35.93 57 35.861 57.07 35.861 57.14 C 35.791 57.209 35.791 57.349 35.861 57.488 C 35.93 57.558 36.07 57.628 36.209 57.558 C 36.279 57.488 36.349 57.488 36.419 57.419 C 36.488 57.349 36.558 57.279 36.628 57.209 C 36.767 57.07 36.907 57 36.977 56.861 C 37.186 56.721 37.326 56.512 37.535 56.372 C 38.791 58.884 41.512 60.558 44.372 60.419 C 47.233 60.279 49.744 58.395 50.861 55.744 C 51.07 55.326 50.302 54.977 50.093 55.465 C 50.023 55.605 49.954 55.674 49.884 55.814 C 50.023 54.977 49.884 54.07 49.814 53.163 C 49.814 52.465 49.744 51.837 49.674 51.14 C 52.047 51.14 54.488 50.861 56.442 49.465 C 58.465 48 59.442 45.698 59.861 43.326 C 60.14 41.721 60.209 39.977 60.279 38.302 C 60.349 37.047 60.349 35.791 60.419 34.535 C 60.488 33.558 60.488 32.581 60.558 31.605 C 60.558 31.186 60.488 30.628 60.558 30.279 C 60.628 29.93 60.977 29.651 61.116 29.372 C 61.326 28.954 61.395 28.465 61.465 28.047 C 61.605 27.488 61.674 26.861 61.744 26.302 C 61.814 25.744 61.884 25.186 61.884 24.558 C 61.884 24 61.954 23.233 61.535 22.814 C 61.954 22.535 62.372 22.116 62.581 21.698 C 63 20.721 63 19.535 63 18.488 C 63 18 62.93 17.512 62.721 17.023 C 62.233 14.791 60.628 12.837 58.674 11.581 C 58.605 11.512 58.465 11.442 58.395 11.372 C 58.395 11.372 58.326 11.372 58.326 11.302 C 58.116 11.163 57.907 11.093 57.698 10.954 C 57.698 10.954 57.698 10.954 57.628 10.954 C 54.07 9.209 49.674 9.628 45.977 10.744 C 42.558 11.721 39.14 13.814 37.884 17.093 C 37.814 17.163 37.814 17.233 37.744 17.302 C 37.605 17.302 37.465 17.302 37.256 17.372 C 35.093 17.512 33 19.047 32.233 21.14 C 31.674 22.674 32.023 24.349 32.581 25.814 C 32.791 25.954 32.861 26.093 32.93 26.302 Z  M 59.791 32.163 C 59.651 34.605 59.581 37.047 59.442 39.488 C 58.186 39.209 57.07 38.581 55.884 38.233 C 54.419 37.814 52.884 37.674 51.419 37.744 C 49.954 37.814 48.488 38.163 47.023 38.581 C 46.256 38.791 45.558 39.07 44.791 39.279 C 44.233 39.488 43.605 39.628 43.116 39.977 C 42.209 38.791 41.302 37.605 40.395 36.419 C 39.907 35.791 39.419 35.093 39 34.465 C 38.861 34.256 38.721 34.047 38.512 33.768 C 38.512 33.698 38.512 33.698 38.512 33.628 C 38.651 30.837 38.512 28.116 38.163 25.395 C 39.07 25.256 39.977 24.907 40.744 24.279 C 41.163 23.93 41.442 23.581 41.721 23.093 C 41.861 22.884 41.93 22.674 42 22.395 C 43.186 22.954 44.651 23.302 45.767 23.581 C 47.93 24.07 50.093 24.209 52.256 24.279 C 54.419 24.349 56.791 24.558 58.884 23.93 C 59.163 23.861 59.442 23.721 59.721 23.581 C 59.93 26.581 59.93 29.442 59.791 32.163 Z  M 33.488 35.442 C 33.628 34.395 34.256 33.419 35.302 33.07 C 36.07 32.861 36.907 33 37.465 33.558 C 37.535 33.698 37.605 33.837 37.744 33.977 C 37.954 34.326 38.163 34.674 38.442 35.023 C 38.93 35.721 39.419 36.419 39.907 37.116 C 40.884 38.442 41.861 39.768 42.977 41.093 C 43.047 41.163 43.047 41.163 43.116 41.233 C 42.837 42.837 43.047 45.488 43.116 45.907 C 43.186 46.744 43.395 47.581 43.605 48.419 C 42.488 47.372 41.372 46.395 40.395 45.279 C 39.628 44.372 38.93 43.395 38.233 42.488 C 38.163 42.349 38.163 42.209 38.163 42.07 C 38.163 41.093 38.233 40.116 38.233 39.14 C 38.233 38.861 37.884 38.721 37.674 38.93 C 37.326 39.279 36.907 39.488 36.419 39.488 C 36.349 39.488 36.279 39.488 36.209 39.488 C 35.581 39.488 34.954 39.209 34.535 38.721 C 33.628 37.814 33.279 36.558 33.488 35.442 Z  M 49.047 56.093 C 49.116 56.302 49.326 56.442 49.535 56.372 C 48.349 58.186 46.395 59.442 44.233 59.512 C 41.791 59.581 39.419 58.256 38.163 56.233 C 38.163 56.233 38.163 56.233 38.233 56.163 C 38.512 55.744 38.372 55.186 38.372 54.698 C 38.372 54.14 38.302 53.581 38.302 53.093 C 38.302 52.326 38.233 51.558 38.233 50.791 C 38.233 49.465 38.233 48.07 38.233 46.744 C 38.233 45.628 38.233 44.581 38.233 43.465 C 39.628 45.558 41.302 47.512 43.116 49.047 C 42.907 48.907 42.628 48.837 42.419 48.698 C 41.93 48.419 41.512 49.116 42 49.395 C 44.093 50.651 46.744 51 49.116 51.07 L 49.186 51.07 C 49.116 51.768 49.047 52.395 49.047 53.093 C 48.977 54.14 48.767 55.186 49.047 56.093 Z  M 57.14 47.721 C 56.651 48.279 56.233 48.768 55.465 49.047 C 52.605 50.233 49.465 50.093 46.395 49.884 C 45.907 49.814 45.209 49.814 44.861 49.395 C 44.512 49.047 44.442 48.419 44.372 48 C 44.163 47.163 43.954 46.395 43.814 45.558 C 43.674 44.721 43.605 43.814 43.605 42.907 C 43.605 42.698 43.535 41.163 43.744 40.535 C 44.233 40.465 44.651 40.256 45.07 40.116 C 45.767 39.907 46.465 39.698 47.163 39.558 C 48.698 39.209 50.233 38.93 51.767 38.861 C 53.302 38.791 54.767 39 56.233 39.488 C 57.279 39.837 58.326 40.326 59.442 40.535 C 59.442 40.605 59.442 40.605 59.442 40.674 C 59.233 43.116 58.814 45.837 57.14 47.721 Z " fill="rgb(55,43,123)"/><path d=" M 48.349 33.768 L 48.209 33.837 L 48.14 33.837 C 48.07 33.907 48 33.907 47.93 33.977 C 48.07 33.907 47.93 33.977 47.93 33.977 L 47.791 34.047 L 47.721 34.047 L 47.581 34.116 L 47.512 34.116 L 47.372 34.116 L 47.302 34.116 L 47.163 34.047 L 47.093 34.047 L 46.954 33.977 L 46.814 33.907 L 46.744 33.837 L 46.674 33.768 L 46.605 33.628 C 46.535 33.488 46.326 33.419 46.186 33.488 C 46.047 33.558 45.977 33.698 45.977 33.907 C 46.116 34.535 46.674 34.954 47.302 35.093 C 47.651 35.163 47.93 35.163 48.279 35.023 C 48.488 34.954 48.698 34.814 48.837 34.674 C 48.907 34.535 48.977 34.395 48.977 34.256 C 48.977 34.116 48.977 33.977 48.837 33.907 C 48.628 33.698 48.419 33.628 48.349 33.768 Z " fill="rgb(55,43,123)"/><path d=" M 57.07 33.698 C 57 33.768 56.861 33.907 56.791 33.977 C 56.721 34.047 56.651 34.186 56.512 34.256 L 56.372 34.395 L 56.302 34.465 L 56.233 34.535 L 56.163 34.535 L 56.093 34.535 L 56.023 34.535 C 55.954 34.535 56.023 34.535 56.023 34.535 L 55.954 34.535 L 55.884 34.535 L 55.814 34.535 L 55.744 34.535 L 55.674 34.535 L 55.605 34.465 L 55.605 34.395 C 55.535 34.047 54.977 34.047 54.907 34.395 C 54.837 34.535 54.837 34.744 54.907 34.884 C 54.977 35.093 55.116 35.233 55.256 35.372 C 55.465 35.581 55.814 35.651 56.163 35.651 C 56.581 35.651 56.861 35.442 57.209 35.233 C 57.349 35.093 57.488 34.954 57.558 34.814 C 57.628 34.675 57.698 34.535 57.768 34.395 C 57.837 34.186 57.837 33.977 57.628 33.837 C 57.488 33.558 57.209 33.558 57.07 33.698 Z " fill="rgb(55,43,123)"/><path d=" M 47.233 29.93 C 47.372 29.861 47.442 29.861 47.581 29.861 C 47.721 29.791 47.93 29.791 48.07 29.651 C 48.209 29.442 48.279 29.093 48 29.023 C 47.861 28.954 47.791 28.954 47.581 28.954 L 47.372 29.023 C 47.233 29.093 47.093 29.093 47.023 29.163 C 46.744 29.233 46.465 29.372 46.186 29.512 C 45.698 29.791 45.209 30.07 44.791 30.419 C 44.512 30.628 44.861 31.186 45.209 30.977 C 45.628 30.698 46.047 30.419 46.535 30.209 C 46.744 30.07 46.954 30 47.233 29.93 Z " fill="rgb(55,43,123)"/><path d=" M 58.256 30.837 C 57.628 30.488 56.861 30.279 56.163 30.349 C 56.023 30.349 55.884 30.488 55.884 30.628 C 55.884 30.767 56.023 30.907 56.163 30.907 C 56.302 30.907 56.442 30.977 56.581 30.977 C 56.651 30.977 56.721 31.047 56.791 31.047 L 56.861 31.116 L 56.93 31.116 C 57.07 31.186 57.209 31.256 57.349 31.326 L 57.558 31.465 C 57.488 31.395 57.558 31.465 57.558 31.465 L 57.628 31.535 C 57.837 31.744 58.116 31.744 58.326 31.465 C 58.535 31.326 58.465 30.977 58.256 30.837 Z " fill="rgb(55,43,123)"/><path d=" M 62.302 41.86 C 63.14 41.512 64.046 41.302 64.954 41.093 C 64.884 41.512 64.814 41.93 64.954 42.279 C 65.093 42.907 65.651 43.047 66.209 42.907 C 67.744 42.558 69.209 42.209 70.744 41.86 C 71.233 41.721 71.023 40.954 70.535 41.093 C 69.419 41.302 68.302 41.581 67.186 41.791 C 66.907 41.86 66.628 41.93 66.419 41.93 C 66.279 41.93 66.14 42 66 42 C 65.93 42 65.861 42 65.791 42 C 65.721 41.86 65.791 41.442 65.791 41.302 C 65.861 41.023 65.861 40.744 66 40.465 C 66.07 40.116 65.791 39.837 65.442 39.907 C 64.326 40.116 63.209 40.465 62.093 40.954 C 61.674 41.302 61.814 42.07 62.302 41.86 Z " fill="rgb(55,43,123)"/><path d=" M 64.814 48.628 C 64.814 49.116 65.093 49.465 65.581 49.535 C 65.861 49.605 66.07 49.535 66.349 49.465 C 66.628 49.395 66.977 49.395 67.256 49.326 C 67.814 49.256 68.442 49.186 69 49.116 C 69.698 49.047 69.628 48 68.861 48.14 C 67.884 48.279 66.907 48.419 65.861 48.558 C 65.791 48.558 65.651 48.558 65.721 48.628 C 65.651 48.558 65.721 48.279 65.721 48.209 C 65.721 47.861 65.721 47.512 65.581 47.163 C 65.512 46.954 65.233 46.884 65.023 46.954 C 64.605 47.023 64.186 47.163 63.767 47.233 C 63.558 47.302 63.419 47.302 63.209 47.372 L 63.14 47.372 C 63.07 47.302 63 47.302 62.861 47.302 C 62.442 47.302 62.302 47.791 62.512 48.07 C 62.791 48.488 63.349 48.279 63.767 48.209 C 64.116 48.14 64.395 48.07 64.744 48 C 64.744 48.07 64.744 48.14 64.744 48.14 C 64.884 48.279 64.814 48.419 64.814 48.628 Z " fill="rgb(55,43,123)"/><path d=" M 76.674 84.488 C 74.023 79.744 72.628 74.442 70.326 69.558 C 68.233 65.233 64.954 60.349 59.93 59.163 C 58.605 58.814 57.209 58.744 55.884 58.465 C 55.186 58.326 54.558 58.186 53.93 57.837 C 53.163 57.488 52.884 57 52.465 56.302 C 52.326 56.093 52.116 56.163 52.116 56.372 L 52.047 56.302 L 51.977 56.233 L 51.907 56.233 L 51.628 56.023 L 51.558 55.954 L 51.488 55.814 L 51.419 55.744 L 51.419 55.674 C 51.349 55.535 51.279 55.465 51.14 55.535 C 51 55.605 50.93 55.674 51 55.814 C 51.14 56.233 51.488 56.651 51.837 56.861 C 51.768 56.861 51.768 56.93 51.698 57 C 48.488 64.186 39.837 64.186 35.93 57.837 L 35.93 57.767 C 35.861 57.698 35.861 57.628 35.791 57.558 C 35.721 57.419 35.442 57.488 35.512 57.698 C 35.512 57.767 35.581 57.837 35.581 57.907 C 33.209 59.372 30.628 60.558 28.116 61.814 C 25.605 63 22.884 64.186 20.651 65.861 C 18.698 67.326 17.302 69.419 16.326 71.581 C 15.209 74.093 14.302 76.884 13.954 79.674 C 13.884 80.163 14.651 80.233 14.791 79.814 C 15.628 77.163 16.047 74.372 17.233 71.861 C 18.279 69.628 19.814 67.465 21.907 66.14 C 26.372 63.279 31.326 61.395 35.651 58.256 C 38.861 65.721 49.535 64.954 52.326 57.419 C 52.326 57.349 52.326 57.279 52.326 57.209 C 52.744 57.907 53.233 58.395 54.07 58.744 C 55.256 59.233 56.512 59.372 57.768 59.581 C 58.884 59.791 60 59.93 61.047 60.419 C 62.302 60.977 63.419 61.744 64.465 62.651 C 68.651 66.349 70.605 71.93 72.558 77.023 C 73.605 79.744 74.651 82.465 76.116 85.047 C 76.256 85.186 76.884 84.837 76.674 84.488 Z " fill="rgb(55,43,123)"/><path d=" M 36.209 37.326 C 36.488 37.465 36.768 37.256 36.837 37.047 C 36.907 36.907 36.907 36.837 36.907 36.698 C 36.907 36.628 36.907 36.488 36.907 36.419 C 36.907 36.209 36.907 36 36.837 35.791 C 36.768 35.442 36.558 35.093 36.279 34.884 C 36 34.675 35.651 34.605 35.372 34.675 C 35.093 34.744 34.884 34.954 34.814 35.233 C 34.744 35.512 34.744 35.861 35.023 36 C 35.163 36.14 35.372 35.93 35.233 35.791 C 35.093 35.651 35.093 35.512 35.163 35.372 C 35.163 35.302 35.233 35.233 35.302 35.163 C 35.372 35.093 35.442 35.093 35.512 35.093 C 35.721 35.023 35.861 35.163 36 35.233 L 36.07 35.302 L 36.14 35.442 L 36.14 35.512 L 36.14 35.581 L 36.14 35.651 L 36.14 35.721 L 36.14 35.861 L 36.14 35.93 L 36.14 36 C 36.14 36.07 36.14 36.14 36.07 36.209 L 36.07 36.279 L 36.07 36.349 C 36 36.419 35.93 36.558 35.93 36.628 C 35.861 36.907 35.93 37.256 36.209 37.326 Z " fill="rgb(55,43,123)"/><path d=" M 63.419 80.233 C 62.93 76.535 62.581 72.837 61.954 69.209 C 61.954 69.14 61.814 69.14 61.814 69.209 C 61.814 72.907 62.372 76.605 62.791 80.302 C 63 82.047 63.209 83.791 63.488 85.465 C 63.767 87.279 63.837 89.372 64.465 91.047 C 64.605 91.326 65.023 91.326 65.093 90.977 C 65.163 89.302 64.605 87.488 64.326 85.814 C 63.907 84 63.628 82.116 63.419 80.233 Z " fill="rgb(55,43,123)"/><path d=" M 26.372 76.744 C 26.093 77.721 26.233 78.837 26.163 79.814 C 26.093 80.861 26.023 81.907 25.954 82.954 C 25.814 85.116 25.605 87.349 25.256 89.512 C 25.186 90.07 26.023 90.279 26.093 89.721 C 26.372 87.558 26.581 85.395 26.721 83.233 C 26.791 82.116 26.861 81.07 26.861 79.954 C 26.861 78.907 27 77.721 26.721 76.744 C 26.651 76.535 26.372 76.535 26.372 76.744 Z " fill="rgb(55,43,123)"/><path d=" M 53.442 42.209 C 52.954 42.209 52.465 42.209 51.977 42.209 C 51 42.209 50.023 42.279 49.047 42.349 C 48.558 42.419 48.558 43.116 49.047 43.116 C 50.023 43.116 51 43.116 51.907 43.116 C 52.395 43.116 52.814 43.186 53.302 43.186 C 53.791 43.186 54.349 43.326 54.767 43.186 C 55.116 43.116 55.186 42.558 54.837 42.419 C 54.419 42.209 53.93 42.279 53.442 42.209 Z " fill="rgb(55,43,123)"/><path d=" M 54 46.116 C 52.047 46.605 49.954 46.674 48 46.186 C 47.651 46.116 47.442 46.674 47.861 46.744 C 49.954 47.442 52.116 47.512 54.279 46.954 C 54.837 46.884 54.558 45.977 54 46.116 Z " fill="rgb(55,43,123)"/><path d=" M 42.558 16.256 C 43.954 15.209 45.558 14.302 47.233 13.744 C 49.047 13.186 50.651 13.395 52.465 13.186 C 53.372 13.116 53.581 11.93 52.674 11.581 C 48.977 10.326 44.233 12.628 41.861 15.349 C 41.442 15.768 42 16.605 42.558 16.256 Z " fill="rgb(255,255,255)"/><path d=" M 56.372 14.163 C 57.977 14.163 57.977 11.721 56.372 11.721 C 54.768 11.721 54.768 14.163 56.372 14.163 Z " fill="rgb(255,255,255)"/></g></g></g></svg>