<?xml version="1.0" encoding="UTF-8" standalone="no"?><!-- Generator: Gravit.io --><svg xmlns="http://www.w3.org/2000/svg" xmlns:xlink="http://www.w3.org/1999/xlink" style="isolation:isolate" viewBox="0 0 90 90" width="90pt" height="90pt"><defs><clipPath id="_clipPath_E38qUKdyztTDGNgkPjlx6dt766235PrG"><rect width="90" height="90"/></clipPath></defs><g clip-path="url(#_clipPath_E38qUKdyztTDGNgkPjlx6dt766235PrG)"><g><path d=" M 45 90 C 69.853 90 90 69.853 90 45 C 90 20.147 69.853 0 45 0 C 20.147 0 0 20.147 0 45 C 0 69.853 20.147 90 45 90 Z " fill="rgb(255,230,238)"/><clipPath id="_clipPath_U0AaJMx0bLdGzzdPGNfDaxHq0yVeY4QS"><path d=" M 45 90 C 69.853 90 90 69.853 90 45 C 90 20.147 69.853 0 45 0 C 20.147 0 0 20.147 0 45 C 0 69.853 20.147 90 45 90 Z " fill="rgb(255,255,255)"/></clipPath><g clip-path="url(#_clipPath_U0AaJMx0bLdGzzdPGNfDaxHq0yVeY4QS)"><g><path d=" M 61.465 6.349 C 61.465 6.419 61.465 6.488 61.465 6.558 C 61.535 6.558 61.535 6.419 61.465 6.349 Z " fill="rgb(119,119,255)"/><path d=" M 72.14 11.721 C 72.14 11.233 72.14 10.744 72 10.256 C 71.861 9.767 71.581 9.349 71.093 9.14 C 69.698 9.349 68.302 9.698 66.977 9.698 C 67.047 9.349 66.837 9.14 66.767 8.791 C 66.488 8.721 66.14 8.721 65.861 8.721 C 65.861 8.651 65.861 8.581 65.861 8.512 C 65.791 7.954 65.581 7.535 65.512 7.047 C 65.512 6.837 65.442 6.558 65.302 6.419 C 65.163 6.349 65.023 6.279 64.884 6.279 C 64.395 6.209 63.907 6.209 63.488 6.279 C 63.488 6 63.419 5.721 63.349 5.442 C 62.791 5.442 62.163 5.442 61.535 5.442 C 61.535 5.721 61.465 6 61.465 6.279 C 61.535 6.349 61.535 6.488 61.465 6.488 C 61.465 6.419 61.465 6.349 61.465 6.279 C 60.837 6.279 60 6.558 59.442 6.698 C 59.302 6.767 59.093 6.767 59.023 6.907 C 58.954 7.047 58.954 7.256 58.954 7.395 C 58.954 7.744 59.023 8.093 59.023 8.442 C 58.465 8.372 57.837 8.442 57.349 8.442 C 57.279 8.442 57.279 8.442 57.209 8.512 C 57.209 8.512 57.209 8.581 57.209 8.651 C 57.209 8.93 57.279 9.209 57.488 9.419 C 57.558 9.419 57.628 9.419 57.698 9.419 C 57.698 9.488 57.558 9.488 57.488 9.419 C 55.395 9.209 53.093 9 51.279 10.047 C 50.581 10.465 49.954 11.023 49.395 11.651 C 48.837 12.279 48.279 12.907 48.07 13.744 C 47.861 14.512 47.93 15.279 48.07 16.047 L 47.512 16.744 C 47.233 17.023 46.954 17.302 46.954 17.651 C 46.884 18 47.163 18.349 47.442 18.558 C 47.721 18.768 48.14 18.837 48.488 18.907 C 50.023 19.186 51.628 19.256 53.023 18.698 C 53.372 18.558 53.721 18.419 53.861 18.07 C 54 17.791 54 17.512 53.791 17.233 C 53.651 17.023 53.372 16.814 53.093 16.884 C 53.023 16.465 53.163 15.837 53.442 15.488 C 53.721 15.14 54.07 14.93 54.488 14.721 C 55.535 14.302 56.651 14.372 57.767 14.512 C 57.628 14.581 57.907 14.791 57.977 14.93 C 58.047 15.07 58.186 15.07 58.326 15.14 C 59.093 15.279 59.861 15.14 60.628 15 C 62.372 14.721 64.116 14.651 65.861 14.791 C 66.209 14.791 66.628 14.861 66.907 14.721 C 67.186 14.581 67.395 14.093 67.116 13.814 C 68.442 13.675 69.628 13.465 70.954 13.326 C 71.302 13.256 71.581 13.256 71.93 13.326 C 71.93 13.326 71.93 13.326 72 13.326 C 72.279 12.907 72.07 12.349 72.14 11.721 Z " fill="rgb(119,119,255)"/><path d=" M 57.558 9.558 C 57.488 9.558 57.419 9.558 57.349 9.558 C 57.419 9.628 57.558 9.628 57.558 9.558 Z " fill="rgb(119,119,255)"/><path d=" M 48.767 19.047 C 48.419 18.768 48.279 18.279 48.488 17.861 C 48.698 17.442 49.186 17.233 49.605 17.372 C 49.535 15.977 49.535 14.442 50.372 13.256 C 50.791 12.628 51.488 12.14 52.186 11.791 C 53.721 11.023 55.535 10.744 57.279 11.093 C 57.349 10.884 57.419 10.675 57.419 10.465 C 60.628 10.395 63.837 10.256 67.047 10.047 C 67.186 10.675 67.186 11.302 66.977 11.861 C 63.698 11.861 60.488 11.93 57.209 11.93 C 57.14 12.279 57.07 12.628 57.07 12.977 C 56.023 12.837 54.977 12.698 53.93 12.837 C 52.884 12.977 51.837 13.465 51.209 14.302 C 50.651 15.14 50.512 16.186 50.442 17.163 C 50.651 17.023 50.861 16.954 51.07 17.093 C 51.14 17.721 51.07 18.279 51 18.907 L 48.767 19.047 Z " fill="rgb(225,225,255)"/><path d=" M 43.744 44.581 C 43.814 42.628 43.116 42.279 42.349 42.14 C 40.744 40.744 40.465 39.768 41.721 39.07 C 42.977 38.302 44.581 39.698 44.512 39.488 C 44.442 39.279 42.698 37.744 43.395 36.698 C 44.023 35.721 48.698 38.651 48.698 38.651 C 48.698 38.651 48.07 25.116 48 22.954 C 47.86 20.861 47.512 18.628 47.512 18.628 C 47.512 18.628 49.605 18.977 51.07 19.047 C 52.535 19.116 53.093 18.977 53.093 18.977 L 54.07 36 C 54.07 36 55.884 32.372 57.837 32.651 C 59.791 32.93 58.744 34.954 58.744 34.954 C 58.744 34.954 59.86 32.93 61.814 33.837 C 63.767 34.744 61.465 38.093 61.465 38.093 C 61.465 38.093 59.651 36.488 57.977 37.814 C 57.279 36.07 54.279 35.512 52.954 37.256 C 51.558 39 52.326 40.814 52.326 40.814 C 52.326 40.814 50.651 40.744 50.512 41.721 C 48.907 41.512 47.512 41.651 46.744 44.861 C 44.93 43.814 43.744 44.581 43.744 44.581 Z " fill="rgb(119,119,255)"/><path d=" M 54.698 35.512 C 54.977 35.023 55.395 34.605 55.884 34.256 C 56.163 34.116 56.442 33.977 56.791 34.047 C 57.14 34.256 57.209 34.744 57.279 35.163 C 57.349 35.442 57.488 35.791 57.698 36 C 57.907 36.209 58.256 36.279 58.535 36.14 C 58.884 36 59.023 35.581 59.163 35.302 C 59.442 34.744 59.861 34.186 60.349 33.768 C 60.628 33.488 60.977 33.279 61.326 33.349 C 61.884 33.419 62.233 34.116 62.233 34.675 C 62.233 35.721 61.674 36.628 61.116 37.465 C 60.977 37.186 61.047 36.837 61.116 36.558 C 61.116 36.279 60.977 35.861 60.698 35.791 C 60.488 35.721 60.279 35.93 60.07 36.07 C 59.442 36.628 58.884 37.326 58.047 37.605 C 57.907 37.675 57.698 37.675 57.488 37.605 C 57.209 37.535 57 37.256 56.791 36.977 C 56.512 36.628 56.233 36.349 55.814 36.14 C 55.395 35.93 54.977 35.861 54.558 36.07 C 54.488 36.14 54.14 36.209 54 36.209 L 54.698 35.512 Z " fill="rgb(225,225,255)"/><path d=" M 50.791 19.186 C 50.791 19.395 50.93 30.279 51.349 28.814 C 51.767 27.349 51.907 18.837 51.907 18.837 L 50.791 19.186 Z " fill="rgb(225,225,255)"/><path d=" M 48.907 19.326 C 48.907 19.326 49.674 31.954 49.814 35.233 C 49.954 38.512 50.791 33.349 50.93 31.116 C 51.07 28.954 51.488 40.744 51.488 40.744 C 51.488 40.744 50.372 40.884 50.163 41.93 C 48.977 41.721 48.977 41.721 48.977 41.721 L 47.512 19.047 L 48.907 19.326 Z " fill="rgb(225,225,255)"/><path d=" M 32.791 55.674 C 32.791 55.674 38.163 53.721 40.954 52.047 C 43.744 50.372 54.279 42.768 56.093 41.581 C 57.837 40.465 59.581 39.419 60.767 40.535 C 61.884 41.651 60.837 42.907 59.651 44.023 C 58.395 45.14 50.372 52.465 50.372 52.465 C 50.372 52.465 54.698 49.884 57.279 48.419 C 59.93 46.954 64.395 43.884 65.372 43.326 C 66.349 42.768 66.279 42.907 66.279 42.907 C 66.279 42.907 66.349 41.442 65.023 41.651 C 63.698 41.861 62.93 42 62.93 42 C 62.93 42 63.14 35.861 57.977 37.674 C 56.581 35.093 53.791 36.14 52.954 37.256 C 52.186 38.372 51.977 40.605 51.977 40.605 C 51.977 40.605 50.861 40.814 50.442 41.581 C 49.535 41.512 47.512 42.349 47.093 43.256 C 46.674 44.163 46.744 44.512 46.744 44.512 C 46.744 44.512 44.442 43.954 43.744 44.581 C 43.326 46.744 40.465 49.395 37.814 50.581 C 35.163 51.698 32.791 55.186 32.791 55.674 Z " fill="rgb(255,255,255)"/><path d=" M 51.907 59.651 C 51.907 59.651 57.279 56.512 62.302 53.442 C 67.395 50.442 67.884 49.744 67.954 49.605 C 68.023 49.465 68.023 47.372 66.698 47.302 C 62.093 51.07 51 59.721 51 59.721 L 51.907 59.651 Z " fill="rgb(225,225,255)"/><path d=" M 60.488 43.186 C 60.558 43.047 63.837 41.721 64.954 41.721 C 66.07 41.721 66.209 42.628 66.209 42.628 C 66.209 42.628 57.837 48 57 48.698 C 56.093 49.326 50.861 52.256 50.861 52.047 C 50.93 51.907 60.488 43.186 60.488 43.186 Z " fill="rgb(225,225,255)"/><path d=" M 43.256 45.698 C 45.349 45.14 46.744 46.326 46.744 46.326 C 46.954 44.512 50.372 43.744 50.372 43.744 C 50.302 42.279 53.302 42.14 53.302 42.14 C 53.651 38.512 56.651 37.744 57.488 38.791 C 56.093 40.256 56.093 40.605 56.093 40.605 C 56.093 40.605 57.907 38.512 59.93 39 C 61.884 39.488 63.07 41.163 63 41.721 C 62.93 42.279 62.721 42.279 62.721 42.279 L 60.977 42.837 C 60.977 42.837 61.884 41.023 60.209 40.326 C 58.605 39.698 58.047 40.744 55.744 42.14 C 53.442 43.535 43.884 50.023 42.977 50.651 C 42.07 51.209 38.023 54.209 36.628 54.698 C 35.233 55.186 32.581 56.163 32.581 56.163 C 32.581 56.163 33.209 53.791 35.233 52.535 C 37.256 51.279 41.442 49.395 42.07 48.349 C 42.767 47.302 43.256 45.698 43.256 45.698 Z " fill="rgb(225,225,255)"/><path d=" M 6.349 70.605 C 18.419 63.488 22.884 55.535 25.256 52.535 C 27.628 49.535 36.767 46.186 38.372 44.861 C 39.977 43.535 42.349 42.419 42.907 42.279 C 43.535 42.209 44.581 42.698 43.954 44.651 C 43.326 46.605 40.256 49.814 37.465 51.209 C 34.674 52.605 33 53.861 32.651 56.023 C 36 54.768 41.791 51.488 44.302 49.535 C 46.884 47.581 54.419 43.326 55.605 41.791 C 56.861 40.326 60.349 39.07 61.047 40.395 C 61.744 41.721 60.488 44.023 57.07 46.256 C 53.651 48.558 50.233 52.395 50.233 52.395 C 50.233 52.395 55.954 49.605 57.907 48.07 C 59.861 46.605 65.721 41.721 68.302 42.907 C 69.419 43.465 67.744 46.605 66.349 47.581 C 64.954 48.558 55.256 56.302 54.698 56.861 C 54.07 57.488 50.581 59.93 50.581 59.93 C 50.581 59.93 54.767 58.465 58.256 56.233 C 61.674 54.07 65.442 50.721 66.628 50.093 C 67.744 49.465 70.465 49.116 69.698 51.558 C 68.93 54 64.954 58.116 62.791 59.721 C 60.628 61.326 55.116 65.163 53.721 66.14 C 52.326 67.116 51.698 67.884 51.698 67.884 C 51.698 67.884 55.744 66.209 57.767 64.535 C 59.791 62.861 63.977 60.698 65.442 61.047 C 66.837 61.395 66.767 62.302 65.093 63.768 C 63.419 65.233 60 68.233 57.767 69.488 C 55.605 70.744 46.326 76.884 40.395 77.861 C 34.395 78.837 23.721 80.233 21.488 81.558 C 19.326 82.884 17.093 84.14 17.093 84.14 L 6.349 70.605 Z " fill="rgb(255,255,255)"/><path d=" M 60.07 40.326 C 60.977 42.349 52.186 48.209 50.233 49.465 C 48.279 50.721 43.395 54.977 44.163 55.605 C 44.93 56.233 46.605 54.977 46.605 54.977 C 46.605 54.977 57.907 46.047 59.372 44.651 C 60.767 43.256 62.93 40.884 60.07 40.326 Z " fill="rgb(225,225,255)"/><path d=" M 66.907 42.628 C 67.605 43.535 66.209 45.279 63.628 47.442 C 61.047 49.605 49.814 57.558 48.488 58.605 C 47.163 59.651 47.163 61.954 50.512 60.07 C 53.93 58.256 64.884 49.535 66.349 47.721 C 67.884 45.837 70.674 44.093 66.907 42.628 Z " fill="rgb(225,225,255)"/><path d=" M 68.651 49.744 C 68.721 51.349 62.581 57.907 58.814 59.861 C 55.047 61.814 49.326 66.279 48.628 67.395 C 47.93 68.512 50.442 68.093 53.023 66.628 C 55.605 65.163 63.14 59.791 64.465 58.256 C 65.721 56.791 71.302 51.628 68.651 49.744 Z " fill="rgb(225,225,255)"/><path d=" M 65.302 61.256 C 65.233 62.233 55.256 69.768 48.977 72.349 C 42.628 74.93 29.93 74.791 24.279 75.698 C 18.628 76.605 8.233 83.372 8.233 83.372 L 12.419 86.163 C 12.419 86.163 23.721 79.744 29.581 79.465 C 35.372 79.186 43.047 78.837 52.186 73.116 C 61.326 67.395 65.861 63.837 66.349 62.651 C 66.698 61.465 65.302 61.256 65.302 61.256 Z " fill="rgb(225,225,255)"/><path d=" M 34.605 55.256 C 34.605 55.256 28.605 58.395 28.605 58.186 C 28.605 57.977 29.581 53.721 33 51.14 C 36.419 48.558 42.907 45.628 43.605 42.977 C 43.814 46.116 41.023 48.768 38.651 50.093 C 36.349 51.419 31.954 54.279 34.605 55.256 Z " fill="rgb(225,225,255)"/><path d=" M 4.605 66.698 C 11.581 62.372 18.14 57.837 20.233 54.209 C 22.326 50.581 22.954 49.465 25.884 48 C 28.814 46.535 39.977 40.047 40.465 40.326 C 40.884 40.535 40.186 43.605 39.977 43.605 C 39.698 43.605 30.419 47.302 27.977 50.442 C 25.535 53.581 23.233 56.233 20.163 59.372 C 17.093 62.512 7.535 70.326 7.535 70.326 L 4.605 66.698 Z " fill="rgb(225,225,255)"/><path d=" M 68.372 49.116 C 68.302 49.116 68.302 49.116 68.233 49.116 C 68.233 48.837 68.093 48.558 68.023 48.349 C 67.884 48 67.605 47.721 67.326 47.512 C 67.605 47.233 67.884 46.954 68.093 46.605 C 68.651 45.837 69.209 44.791 69 43.814 C 68.721 42.628 67.465 42.279 66.419 42.419 C 66.419 42.419 66.419 42.419 66.349 42.419 C 66.349 42.349 66.349 42.349 66.349 42.279 C 66.209 41.721 65.651 41.512 65.163 41.512 C 64.535 41.512 63.837 41.651 63.209 41.791 C 63.14 41.791 63.14 41.791 63.14 41.791 C 63.14 40.395 62.861 38.861 61.884 37.814 C 62.093 37.675 62.302 37.465 62.442 37.256 C 62.721 36.907 62.93 36.488 63.07 36 C 63.279 35.233 63.209 34.395 62.721 33.768 C 62.233 33.07 61.326 32.93 60.558 33.14 C 60.07 33.279 59.651 33.558 59.302 33.907 C 59.302 33.628 59.302 33.419 59.163 33.209 C 58.954 32.512 58.256 32.093 57.558 32.233 C 56.721 32.302 56.023 32.861 55.465 33.419 C 54.907 33.977 54.558 34.605 54.349 35.302 C 54.209 32.93 54.07 30.488 53.93 28.116 C 53.861 26.721 53.791 25.326 53.651 23.861 C 53.512 22.535 53.581 21 53.163 19.744 C 53.093 19.535 52.744 19.535 52.744 19.744 C 52.465 21 52.674 22.395 52.744 23.721 C 52.814 25.186 52.884 26.651 52.954 28.116 C 53.093 30.907 53.233 33.698 53.442 36.488 C 52.186 37.326 51.698 38.93 51.837 40.395 C 51.07 40.395 50.442 40.884 50.093 41.442 C 49.814 41.302 49.465 41.372 49.256 41.372 C 49.256 41.302 49.256 41.302 49.256 41.233 C 49.047 39.558 49.116 37.814 49.047 36.07 C 49.047 34.186 48.977 32.302 48.837 30.419 C 48.767 28.605 48.628 26.721 48.488 24.907 C 48.349 23.233 48.349 21.209 47.791 19.535 C 47.791 19.465 47.581 19.395 47.581 19.535 C 47.442 20.372 47.581 21.279 47.581 22.116 C 47.651 23.163 47.721 24.14 47.791 25.186 C 47.93 27.209 48 29.163 48.07 31.186 C 48.14 33.14 48.14 35.093 48.14 37.047 C 48.14 37.395 48.14 37.814 48.14 38.163 C 47.581 37.675 46.954 37.256 46.256 36.837 C 45.558 36.488 44.721 36 43.954 36 C 43.186 36.07 42.698 36.628 42.837 37.395 C 42.907 37.744 43.186 38.093 43.395 38.372 C 43.465 38.442 43.535 38.512 43.605 38.581 C 43.256 38.442 42.837 38.372 42.419 38.372 C 41.791 38.372 41.093 38.721 40.744 39.279 C 40.674 39.419 40.605 39.488 40.605 39.628 C 40.326 39.488 39.907 39.558 39.488 39.698 C 37.186 40.465 35.093 41.861 33 43.047 C 30.628 44.442 28.256 45.907 25.954 47.442 C 25.326 47.861 24.698 48.279 24.14 48.698 C 22.256 50.233 20.791 52.326 19.326 54.209 C 17.512 56.442 15.419 58.395 13.186 60.209 C 12 61.116 10.744 62.023 9.558 62.93 C 8.512 63.698 7.116 64.326 6.279 65.372 C 6.209 65.442 6.279 65.651 6.419 65.581 C 7.395 65.302 8.302 64.605 9.14 64.047 C 10.186 63.349 11.233 62.651 12.209 61.954 C 14.023 60.698 15.698 59.302 17.302 57.837 C 18.977 56.233 20.372 54.419 21.837 52.675 C 22.814 51.488 24 50.093 25.186 49.256 C 28.954 46.535 33.07 44.093 37.186 41.93 C 38.023 41.442 38.93 40.954 39.907 40.675 C 39.977 40.675 40.116 40.605 40.256 40.605 C 40.256 40.675 40.256 40.744 40.326 40.884 C 40.256 41.791 39.767 42.837 38.93 43.256 C 38.721 43.326 38.721 43.535 38.721 43.675 C 36.419 44.93 33.907 45.837 31.674 47.233 C 29.442 48.558 27.349 50.163 25.465 51.907 C 23.442 53.791 21.907 55.954 20.233 58.116 C 18.419 60.628 16.395 62.791 14.023 64.814 C 11.651 66.837 9 68.651 6.419 70.465 C 6 70.744 6.349 71.372 6.837 71.163 C 11.023 68.512 15.279 65.721 18.558 62.023 C 20.302 60.07 21.698 57.837 23.372 55.744 C 24.977 53.791 26.791 52.047 28.814 50.512 C 30.837 48.977 33 47.651 35.302 46.605 C 37.535 45.558 39.628 44.512 41.651 43.116 C 42.209 42.698 43.047 42.279 43.326 43.186 C 43.465 43.605 43.395 44.163 43.256 44.581 C 43.047 45.349 42.767 45.977 42.279 46.605 C 41.372 47.861 40.047 48.698 38.721 49.535 C 35.93 51.209 32.721 52.814 32.093 56.302 C 31.954 57 32.861 57.209 33.14 56.581 C 33.07 56.791 33.209 56.581 33.349 56.512 C 33.488 56.442 33.628 56.302 33.837 56.233 C 34.326 55.954 34.884 55.675 35.372 55.465 C 36.279 55.047 37.256 54.628 38.163 54.14 C 39.628 53.442 40.954 52.395 42.349 51.488 C 44.023 50.372 45.698 49.326 47.372 48.279 C 49.116 47.233 50.791 46.186 52.465 45 C 54 43.954 55.326 42.768 56.791 41.721 C 57.488 41.233 58.256 40.744 59.163 40.535 C 60.279 40.256 61.535 40.884 60.837 42.209 C 60.419 43.047 59.581 43.675 58.884 44.302 C 58.186 45 57.419 45.698 56.651 46.326 C 53.302 49.256 49.744 51.907 46.256 54.768 C 45.767 55.186 46.465 55.814 46.954 55.465 C 49.395 53.512 52.395 52.186 55.116 50.581 C 58.116 48.837 60.837 46.605 63.698 44.791 C 64.465 44.302 65.233 43.744 66.07 43.465 C 66.628 43.256 67.744 43.116 68.093 43.814 C 68.442 44.581 67.674 45.698 67.186 46.256 C 66.07 47.442 64.674 48.488 63.419 49.535 C 62.093 50.651 60.698 51.768 59.302 52.814 C 56.023 55.395 52.674 57.768 49.326 60.209 C 48.907 60.558 49.116 61.256 49.744 61.116 C 55.814 59.442 60.698 55.256 65.721 51.628 C 66.279 51.209 66.907 50.721 67.465 50.372 C 68.023 50.023 68.93 50.023 69 50.861 C 69.07 51.419 68.791 51.907 68.512 52.326 C 67.744 53.721 66.767 54.977 65.651 56.093 C 63.488 58.395 60.907 60.349 58.326 62.233 C 55.814 64.116 52.674 65.372 50.651 67.884 C 50.302 68.302 50.721 69.07 51.279 68.721 C 51.628 68.442 52.186 68.372 52.605 68.163 C 53.302 67.884 54 67.605 54.698 67.256 C 55.605 66.837 56.372 66.279 57.14 65.721 C 58.326 64.954 59.512 64.186 60.698 63.419 C 61.814 62.721 63 61.954 64.326 61.744 C 64.605 61.675 65.023 61.605 65.302 61.744 C 65.791 61.954 65.581 62.372 65.302 62.721 C 64.884 63.14 64.395 63.488 63.907 63.907 C 61.884 65.512 59.861 67.116 57.767 68.581 C 53.651 71.512 49.326 74.163 44.581 75.907 C 42.209 76.814 39.767 77.442 37.256 77.861 C 34.535 78.279 31.814 78.279 29.093 78.768 C 23.093 79.814 17.163 82.465 11.93 85.535 C 11.302 85.884 11.861 86.93 12.488 86.512 C 17.581 83.512 23.302 80.93 29.233 79.884 C 32.233 79.326 35.302 79.395 38.302 78.837 C 40.954 78.349 43.605 77.512 46.116 76.535 C 51.14 74.442 55.674 71.512 60 68.302 C 61.047 67.535 62.163 66.698 63.209 65.861 C 64.186 65.093 65.372 64.326 66.209 63.419 C 66.837 62.721 67.047 61.605 66.279 60.977 C 65.442 60.279 64.046 60.558 63.14 60.907 C 61.674 61.395 60.419 62.302 59.163 63.07 C 57.698 64.047 56.233 65.023 54.767 65.93 C 54.349 66.209 53.93 66.349 53.442 66.558 C 55.256 65.163 57.488 64.047 59.302 62.721 C 62.023 60.698 64.814 58.605 67.047 56.023 C 68.093 54.837 69.279 53.372 69.837 51.907 C 70.186 50.93 69.837 49.256 68.372 49.116 Z  M 54.767 35.581 C 55.186 34.535 56.093 33.419 57.209 33 C 57.767 32.791 58.326 32.861 58.465 33.558 C 58.535 34.047 58.465 34.535 58.326 35.023 C 58.186 35.372 58.744 35.721 59.023 35.442 C 59.442 34.954 59.93 34.395 60.488 34.116 C 61.047 33.837 61.814 33.837 62.163 34.465 C 62.442 34.954 62.372 35.651 62.093 36.14 C 61.884 36.488 61.465 36.977 61.326 37.395 C 60.349 36.768 58.954 36.628 57.977 37.256 C 57.209 36.07 55.674 35.581 54.279 35.93 C 54.279 35.861 54.279 35.791 54.279 35.721 C 54.419 35.861 54.698 35.791 54.767 35.581 Z  M 41.163 41.721 C 41.302 41.791 41.372 41.93 41.512 42 C 41.372 42.07 41.163 42.14 41.023 42.279 C 41.023 42.07 41.093 41.93 41.163 41.721 Z  M 42.767 41.651 L 42.698 41.581 C 42.279 41.372 41.861 41.233 41.581 40.884 C 41.302 40.535 41.233 40.116 41.512 39.768 C 42.209 38.93 43.465 39.488 44.302 39.837 C 44.651 39.977 44.93 39.768 44.861 39.419 C 44.791 38.791 44.233 38.372 43.884 37.884 C 43.674 37.675 43.465 37.256 43.605 36.977 C 43.744 36.698 44.093 36.768 44.372 36.768 C 45.07 36.907 45.698 37.256 46.326 37.605 C 46.954 37.954 47.581 38.372 48.209 38.791 C 48.209 39.209 48.209 39.628 48.209 40.116 C 48.209 40.605 48.209 41.163 48.558 41.442 C 48.07 41.651 47.581 41.93 47.233 42.349 C 46.814 42.837 46.535 43.395 46.465 43.954 C 45.977 43.954 45.698 43.884 45.349 43.954 C 45 43.954 44.651 44.093 44.372 44.302 C 44.442 43.675 44.372 43.047 44.093 42.558 C 43.744 41.93 43.256 41.651 42.767 41.651 Z  M 59.861 39.628 C 58.116 39.488 56.581 40.744 55.256 41.791 C 53.442 43.256 51.488 44.651 49.465 45.907 C 47.581 47.093 45.628 48.279 43.744 49.465 C 41.791 50.651 39.977 52.047 37.954 53.163 C 36.837 53.791 35.651 54.209 34.535 54.768 C 34.256 54.907 33.907 55.047 33.558 55.186 C 34.814 52.884 37.535 51.628 39.698 50.302 C 41.023 49.465 42.279 48.558 43.116 47.302 C 43.605 46.605 44.023 45.698 44.233 44.791 C 44.581 44.791 44.93 44.651 45.279 44.651 C 45.698 44.651 46.047 44.791 46.326 45.07 C 46.605 45.279 47.023 45.14 47.023 44.791 C 47.023 44.093 47.302 43.465 47.791 42.977 C 48.07 42.768 48.349 42.558 48.698 42.419 C 49.047 42.279 49.326 42.349 49.674 42.349 C 49.674 42.768 49.744 43.116 50.023 43.535 C 49.954 43.605 49.814 43.675 49.744 43.744 C 49.186 44.163 48.907 45 49.256 45.628 C 49.465 45.907 49.884 45.698 49.744 45.349 C 49.605 45.14 49.674 44.93 49.744 44.721 C 49.814 44.512 50.023 44.302 50.163 44.163 C 50.721 43.814 51.419 43.814 52.047 43.884 C 52.186 43.884 52.326 43.744 52.395 43.605 C 52.465 43.116 51.837 43.186 51.558 43.186 C 51.349 43.186 51.14 43.186 50.93 43.256 C 50.861 43.256 50.791 43.256 50.721 43.326 C 50.023 42.349 50.861 41.023 52.047 41.302 C 52.326 41.372 52.605 41.093 52.535 40.814 C 52.256 39.419 52.744 37.675 54.14 37.047 C 55.395 36.488 56.93 36.977 57.488 38.233 C 57.628 38.512 57.977 38.512 58.116 38.302 C 59.023 37.395 60.558 37.744 61.395 38.581 C 62.302 39.558 62.442 40.884 62.372 42.209 C 62.093 42.279 61.884 42.419 61.605 42.558 C 62.233 40.954 61.256 39.698 59.861 39.628 Z  M 61.465 45.07 C 59.791 46.186 58.186 47.372 56.512 48.558 C 55.326 49.326 54.07 50.023 52.814 50.721 C 54.349 49.465 55.954 48.209 57.419 46.884 C 58.186 46.186 59.023 45.488 59.721 44.721 C 60.14 44.302 60.558 43.884 60.977 43.465 C 61.116 43.395 61.256 43.326 61.395 43.256 C 61.744 43.116 62.093 42.977 62.442 42.837 C 62.581 43.047 63.07 42.977 63.14 42.628 C 63.628 42.488 64.116 42.349 64.674 42.279 C 64.884 42.279 65.651 42.07 65.721 42.419 C 65.721 42.488 65.721 42.488 65.791 42.488 C 65.233 42.698 64.744 42.977 64.256 43.256 C 63.209 43.814 62.302 44.442 61.465 45.07 Z  M 66.349 49.884 C 65.651 50.372 64.884 50.93 64.186 51.488 C 62.791 52.535 61.395 53.582 59.93 54.628 C 57.628 56.302 55.256 57.907 52.605 59.023 C 54.977 57.279 57.349 55.535 59.651 53.721 C 61.256 52.465 62.861 51.209 64.395 49.884 C 65.163 49.186 66.07 48.558 66.907 47.861 C 66.977 47.93 67.116 48 67.186 48.14 L 67.256 48.209 L 67.326 48.349 L 67.395 48.488 L 67.395 48.558 C 67.465 48.628 67.465 48.768 67.465 48.837 L 67.465 48.977 L 67.465 49.047 L 67.465 49.116 C 67.465 49.186 67.465 49.186 67.465 49.256 C 67.116 49.326 66.767 49.605 66.349 49.884 Z " fill="rgb(55,43,123)"/><path d=" M 71.93 13.186 C 71.581 12.977 71.093 13.116 70.744 13.116 C 70.326 13.116 69.977 13.116 69.558 13.116 C 69.209 13.116 68.791 13.116 68.442 13.116 C 68.093 13.116 67.814 13.186 67.535 13.186 C 67.605 12.07 67.605 10.954 67.535 9.907 C 67.744 9.907 67.884 9.907 68.093 9.907 C 68.442 9.907 68.791 9.907 69.14 9.837 C 69.837 9.837 70.605 9.837 71.302 9.698 C 71.512 9.698 71.651 9.558 71.651 9.349 C 71.651 9.14 71.512 9 71.302 9 C 70.535 9 69.837 9.14 69.07 9.209 C 68.721 9.209 68.372 9.279 68.023 9.279 C 67.814 9.279 67.674 9.349 67.535 9.349 C 67.535 9.14 67.535 8.93 67.535 8.721 C 67.535 8.442 67.326 8.163 66.977 8.163 C 66.628 8.163 66.279 8.163 65.93 8.163 C 65.93 8.023 65.93 7.954 65.93 7.814 C 65.93 7.674 65.93 7.465 65.861 7.326 C 65.791 7.047 65.791 6.767 65.721 6.488 C 65.721 6.419 65.581 6.349 65.512 6.349 C 65.442 6.349 65.372 6.419 65.372 6.419 C 64.954 6.14 64.465 6.14 63.977 6.07 C 63.837 6.07 63.628 6.07 63.488 6.07 C 63.488 5.93 63.488 5.721 63.488 5.581 L 63.488 5.512 C 63.279 5.512 63.14 5.512 62.93 5.512 L 62.93 5.581 C 62.93 5.721 62.93 5.93 62.93 6.07 C 62.721 6.07 62.512 6.07 62.302 6.07 C 62.233 6.07 62.163 6.07 62.093 6.07 C 62.093 5.861 62.093 5.651 62.093 5.442 C 61.884 5.442 61.674 5.442 61.465 5.442 C 61.465 5.651 61.465 5.93 61.465 6.14 C 61.186 6.279 60.907 6.279 60.698 6.349 C 60.419 6.419 60.14 6.488 59.93 6.558 C 59.651 6.628 59.512 6.698 59.372 6.907 C 59.233 6.837 59.023 6.907 58.884 6.977 C 58.744 7.116 58.744 7.326 58.674 7.465 C 58.674 7.535 58.674 7.674 58.674 7.744 C 58.674 7.954 58.744 8.093 58.814 8.233 C 58.326 8.233 57.837 8.302 57.349 8.372 C 57.14 8.372 57.07 8.581 57.14 8.721 C 57.07 8.93 57 9.209 57 9.419 C 57 9.349 56.93 9.349 56.861 9.349 C 54.488 8.93 51.698 9.209 49.744 10.814 C 48.907 11.512 48.14 12.419 47.721 13.465 C 47.302 14.442 47.093 15.628 47.512 16.605 C 47.442 16.605 47.302 16.605 47.233 16.605 C 46.744 16.535 46.535 17.163 46.814 17.372 C 46.395 18 46.884 18.837 47.512 19.116 C 47.93 19.326 48.419 19.326 48.907 19.395 C 49.116 19.395 49.326 19.395 49.605 19.465 C 49.535 22.954 49.674 26.512 49.954 30.07 C 49.954 30.349 50.442 30.419 50.442 30.07 C 50.302 26.512 50.372 23.023 50.512 19.465 C 51.419 19.535 52.605 19.744 53.372 19.186 C 54.07 18.698 54.419 17.581 53.721 17.023 C 53.651 16.954 53.581 16.954 53.442 16.954 C 53.093 16.395 53.442 15.628 53.93 15.349 C 54.279 15.07 54.767 15 55.256 15 C 55.535 15 55.744 15 56.023 15.07 C 56.163 15.07 56.233 15.07 56.372 15.14 C 56.442 15.14 56.512 15.14 56.581 15.14 C 56.651 15.14 56.791 15.14 56.861 15.07 C 57 15.07 57.07 15 57.07 14.861 C 57.07 14.861 57.07 14.861 57.07 14.93 C 57.07 14.93 57.07 14.93 57 14.93 C 56.861 15.07 56.861 15.279 57 15.419 C 57.488 15.907 58.535 15.628 59.163 15.628 C 60 15.628 60.907 15.558 61.744 15.558 C 63.419 15.488 65.093 15.419 66.837 15.419 C 67.116 15.419 67.326 15.209 67.395 14.861 C 67.395 14.651 67.395 14.442 67.395 14.163 C 67.674 14.233 68.023 14.233 68.302 14.233 C 68.721 14.233 69.07 14.233 69.488 14.233 C 69.837 14.233 70.256 14.233 70.605 14.233 C 71.023 14.233 71.512 14.302 71.861 14.163 C 72.279 13.954 72.279 13.395 71.93 13.186 Z  M 52.605 18.349 C 51.977 18.558 51.209 18.419 50.651 18.419 C 49.954 18.419 49.186 18.419 48.488 18.349 C 48.209 18.349 47.861 18.349 47.651 18.14 C 47.512 18 47.372 17.721 47.512 17.581 C 47.512 17.512 47.581 17.512 47.581 17.442 C 49.395 17.791 51.279 17.791 53.023 17.442 C 53.023 17.442 53.023 17.442 53.023 17.512 C 53.233 17.861 52.954 18.279 52.605 18.349 Z  M 57 14.233 C 56.93 14.163 56.861 14.163 56.721 14.093 C 56.651 14.093 56.512 14.093 56.442 14.093 C 56.302 14.093 56.163 14.093 55.954 14.023 C 55.674 14.023 55.326 14.023 55.047 14.023 C 54.488 14.093 53.861 14.302 53.442 14.721 C 53.023 15.14 52.744 15.837 52.814 16.395 C 51.279 16.675 49.814 16.744 48.279 16.605 C 48.349 16.535 48.349 16.465 48.349 16.395 C 48.279 15.907 48.209 15.488 48.279 15 C 48.349 14.512 48.488 14.093 48.628 13.675 C 49.047 12.768 49.674 12 50.442 11.372 C 52.256 9.977 54.558 9.837 56.791 9.767 C 56.861 9.767 56.861 9.767 56.93 9.698 C 56.791 10.395 56.791 11.093 56.791 11.791 C 56.791 12.349 56.861 12.907 56.93 13.395 C 56.93 13.744 57 14.023 57 14.233 C 57 14.233 57 14.302 57 14.233 Z  M 59.512 7.465 C 59.512 7.395 59.581 7.326 59.581 7.256 C 59.721 7.256 59.861 7.256 60 7.256 C 60.279 7.186 60.488 7.186 60.767 7.116 C 61.256 7.047 61.814 7.047 62.372 7.047 C 62.861 7.047 63.419 7.047 63.907 7.116 C 64.395 7.186 64.884 7.256 65.302 7.186 C 65.302 7.256 65.302 7.326 65.302 7.465 C 65.302 7.605 65.233 7.814 65.233 7.954 C 65.233 8.093 65.233 8.163 65.233 8.302 C 64.186 8.302 63.209 8.302 62.163 8.302 C 61.326 8.302 60.419 8.302 59.581 8.302 C 59.581 8.233 59.581 8.233 59.581 8.233 C 59.581 8.163 59.512 8.093 59.512 8.023 C 59.512 7.954 59.512 7.884 59.512 7.814 C 59.442 7.605 59.512 7.535 59.512 7.465 Z  M 66.419 14.233 C 64.884 14.302 63.349 14.372 61.884 14.372 C 61.047 14.372 60.209 14.442 59.372 14.442 C 58.954 14.442 58.535 14.442 58.186 14.512 C 58.116 14.093 58.047 13.744 57.977 13.395 C 57.907 12.907 57.837 12.349 57.767 11.861 C 57.698 10.954 57.698 10.047 57.767 9.07 C 59.233 9.209 60.767 9.209 62.233 9.279 C 63.628 9.349 65.093 9.349 66.488 9.349 C 66.488 10.954 66.488 12.628 66.419 14.233 Z " fill="rgb(55,43,123)"/><path d=" M 43.535 41.721 C 42.977 41.651 42.488 41.233 42.419 40.744 C 42.349 40.186 42.837 39.628 43.326 39.698 C 43.605 39.698 43.814 39.837 44.023 39.977 C 44.442 40.186 44.93 40.256 45.349 40.186 C 45.279 39.698 44.93 39.349 44.581 39 C 44.233 38.651 44.023 38.093 44.233 37.744 C 44.442 37.465 44.791 37.395 45.14 37.465 C 45.488 37.535 45.767 37.744 46.047 37.954 C 46.605 38.302 47.163 38.721 47.721 39.07 C 47.372 39.279 46.954 39 46.605 39.07 C 46.116 39.14 45.907 39.698 45.907 40.116 C 45.907 40.605 46.186 41.023 46.326 41.442 C 46.395 41.581 46.395 41.791 46.326 41.93 C 46.256 42.14 45.977 42.14 45.837 42.279 C 45.628 42.349 45.419 42.488 45.488 42.698 C 45.488 42.837 45.628 42.907 45.698 42.977 C 45.907 43.116 46.116 43.326 46.256 43.535 C 46.395 43.744 46.395 44.093 46.186 44.302 C 46.116 44.372 45.977 44.442 45.837 44.512 C 45.209 44.721 44.512 44.581 43.884 44.233 C 43.954 43.675 43.884 43.047 43.605 42.488 L 43.535 41.721 Z " fill="rgb(225,225,255)"/></g></g><path d=" M 63.279 4.535 C 64.326 4.535 65.372 4.605 66.419 4.605 C 66.837 4.605 67.395 4.605 67.605 4.186 C 67.814 3.837 67.605 3.279 67.186 3.07 C 66.837 2.86 66.349 2.86 65.93 2.86 C 64.256 2.86 62.581 2.86 60.977 2.86 C 59.93 2.86 58.814 2.86 57.767 3.14 C 57.488 3.209 57.279 3.279 57.07 3.488 C 56.861 3.698 56.861 4.047 57 4.186 C 57.14 4.326 57.279 4.326 57.419 4.395 C 58.744 4.674 60.14 4.814 61.535 4.814 C 61.535 5.023 61.465 5.302 61.465 5.512 C 62.093 5.512 62.721 5.512 63.279 5.512 C 63.279 5.233 63.209 4.884 63.279 4.535 Z " fill="rgb(119,119,255)"/><path d=" M 62.023 5.163 C 62.023 5.093 61.954 5.023 61.884 4.953 C 62.233 4.953 62.651 4.953 63 4.884 C 63 4.953 62.93 5.093 62.93 5.163 C 62.93 5.302 62.861 5.372 62.861 5.512 C 63.07 5.512 63.209 5.512 63.419 5.512 C 63.419 5.372 63.419 5.302 63.349 5.163 C 63.349 5.093 63.279 4.953 63.279 4.884 C 64.535 4.814 65.791 4.744 66.977 4.535 C 67.047 4.535 67.047 4.535 67.116 4.535 C 67.186 4.535 67.256 4.535 67.326 4.535 C 67.465 4.535 67.535 4.395 67.535 4.256 C 67.884 3.977 68.023 3.558 67.814 3.14 C 67.465 2.581 66.698 2.651 66.14 2.651 C 64.186 2.721 62.233 2.791 60.209 2.86 C 59.302 2.93 58.326 2.93 57.419 3 C 56.861 3.07 56.442 3.419 56.512 4.047 C 56.651 4.744 57.349 4.953 57.907 4.953 C 58.884 5.023 59.791 4.953 60.767 4.953 C 60.977 4.953 61.186 4.953 61.395 4.953 C 61.326 5.023 61.326 5.093 61.326 5.163 C 61.326 5.302 61.326 5.372 61.326 5.512 C 61.535 5.512 61.744 5.512 61.954 5.512 C 62.023 5.372 62.023 5.302 62.023 5.163 Z  M 59.581 4.326 C 59.163 4.326 58.674 4.326 58.256 4.326 C 58.047 4.326 57.837 4.326 57.698 4.256 C 57.488 4.186 57.14 3.907 57.558 3.767 C 57.907 3.628 58.395 3.698 58.744 3.698 C 59.163 3.698 59.581 3.628 60 3.628 C 60.907 3.558 61.814 3.488 62.721 3.488 C 63.558 3.488 64.395 3.419 65.233 3.419 C 65.651 3.419 66.07 3.419 66.488 3.419 C 66.837 3.419 67.605 3.419 66.977 3.837 C 65.372 3.977 63.837 4.116 62.233 4.256 C 61.326 4.326 60.488 4.326 59.581 4.326 Z " fill="rgb(55,43,123)"/></g></g></svg>