<?xml version="1.0" encoding="UTF-8" standalone="no"?><!-- Generator: Gravit.io --><svg xmlns="http://www.w3.org/2000/svg" xmlns:xlink="http://www.w3.org/1999/xlink" style="isolation:isolate" viewBox="0 0 90 90" width="90pt" height="90pt"><defs><clipPath id="_clipPath_e8DzM7TtQ98BqZpGjhNMEJGfJQJ1PwXE"><rect width="90" height="90"/></clipPath></defs><g clip-path="url(#_clipPath_e8DzM7TtQ98BqZpGjhNMEJGfJQJ1PwXE)"><g><path d=" M 45 90 C 69.853 90 90 69.853 90 45 C 90 20.147 69.853 0 45 0 C 20.147 0 0 20.147 0 45 C 0 69.853 20.147 90 45 90 Z " fill="rgb(255,230,238)"/><path d=" M 22.26 45.314 C 22.122 45.936 22.398 46.697 22.951 47.042 C 23.02 47.112 23.089 47.112 23.089 47.181 C 23.159 47.25 23.159 47.319 23.159 47.388 C 23.159 47.665 23.159 48.079 22.882 48.148 C 22.813 48.218 22.675 48.218 22.606 48.218 C 22.26 48.356 22.191 48.771 22.191 49.116 C 22.191 49.393 22.26 49.669 22.467 49.877 C 22.744 50.015 23.089 49.946 23.366 49.808 C 24.126 49.462 24.887 49.047 25.163 48.287 C 25.371 47.803 25.302 47.319 25.232 46.835 C 25.163 46.144 25.094 45.383 24.956 44.692 L 22.26 45.314 L 22.26 45.314 Z " fill="rgb(255,255,255)"/><path d=" M 5.6 45.245 C 4.839 45.798 4.632 46.973 4.977 47.872 C 5.046 48.01 5.046 48.079 5.116 48.218 C 5.323 48.701 5.738 49.116 6.153 49.393 C 6.567 49.669 7.051 49.738 7.535 49.738 C 7.604 49.738 7.604 49.738 7.673 49.669 C 7.673 49.6 7.673 49.6 7.673 49.531 C 7.535 48.978 7.328 48.494 6.982 48.01 C 7.12 48.079 7.259 48.01 7.397 47.872 C 7.466 47.734 7.535 47.595 7.535 47.457 C 7.604 46.766 7.604 46.075 7.397 45.452 C 7.328 45.452 7.19 45.521 7.12 45.521 L 5.6 45.245 L 5.6 45.245 Z " fill="rgb(255,255,255)"/><path d=" M 17.628 76.768 C 17.628 76.837 17.628 76.976 17.628 77.045 C 17.283 80.501 17.075 81.538 18.527 82.368 C 20.048 83.197 19.564 84.511 21.361 84.856 C 23.159 85.202 24.956 84.649 25.025 83.75 C 25.094 82.852 23.85 82.437 22.813 80.57 C 21.776 78.773 21.361 76.699 21.361 76.699 L 17.628 76.768 L 17.628 76.768 Z " fill="rgb(255,255,255)"/><path d=" M 19.702 78.704 C 19.702 79.603 20.255 80.432 20.946 81.054 C 21.638 81.676 22.467 82.16 23.02 82.852 C 23.228 83.128 23.435 83.405 23.435 83.75 C 23.435 84.303 22.813 84.718 22.329 84.995 C 22.813 84.856 23.366 84.787 23.85 84.649 C 24.265 84.58 24.749 84.442 24.956 84.027 C 25.163 83.681 25.025 83.197 24.749 82.852 C 24.472 82.506 24.126 82.299 23.85 81.953 C 23.366 81.4 23.089 80.709 22.813 80.017 C 22.606 79.464 22.398 78.911 22.122 78.358 C 21.983 78.013 21.776 77.598 21.43 77.598 L 19.702 78.704 L 19.702 78.704 Z " fill="rgb(225,225,255)"/><path d=" M 7.328 77.598 C 7.466 79.672 6.706 82.16 5.738 83.336 C 4.77 84.511 4.01 85.962 6.498 86.377 C 9.056 86.861 10.37 85.064 10.439 83.819 C 10.508 82.575 12.029 82.091 12.029 80.847 C 11.96 79.603 12.029 78.358 12.029 78.358 L 7.328 77.598 L 7.328 77.598 Z " fill="rgb(255,255,255)"/><path d=" M 8.434 79.326 C 8.71 79.81 9.54 79.603 9.886 79.948 C 10.024 80.156 10.093 80.363 10.024 80.639 C 9.955 80.985 9.816 81.331 9.678 81.676 C 9.263 82.575 8.849 83.543 8.226 84.303 C 7.604 85.064 6.637 85.686 5.6 85.686 C 6.844 86.377 8.641 86.239 9.54 85.064 C 9.747 84.787 9.886 84.442 10.093 84.096 C 10.577 83.266 11.199 82.575 11.614 81.746 C 12.029 80.916 12.236 79.81 11.683 79.049 C 11.614 79.119 11.476 79.188 11.407 79.188 L 8.434 79.326 L 8.434 79.326 Z " fill="rgb(225,225,255)"/><path d=" M 4.493 45.729 L 7.604 45.936 L 8.641 42.895 C 10.853 44.554 18.112 43.586 19.011 43.586 C 19.909 43.586 21.292 42.964 21.292 42.964 L 21.499 45.038 C 21.499 45.038 24.265 45.66 26.131 44.07 C 25.578 39.991 23.642 24.713 23.02 22.847 C 22.398 20.98 21.223 18.906 17.352 18.146 C 16.66 20.566 13.619 20.358 11.199 18.837 C 7.535 19.805 6.153 22.086 5.6 24.229 C 5.047 26.373 4.632 37.019 4.632 37.019 L 4.493 45.729 L 4.493 45.729 Z " fill="rgb(119,119,255)"/><path d=" M 8.434 25.681 C 8.157 27.409 7.881 29.138 7.604 30.866 C 6.982 35.567 6.567 40.268 6.498 45.038 C 6.498 45.383 6.498 45.729 6.775 45.936 C 7.051 46.213 7.535 46.075 7.812 45.798 C 8.088 45.522 8.157 45.107 8.226 44.692 C 8.503 43.24 8.641 41.789 8.572 40.268 L 8.434 25.681 L 8.434 25.681 Z " fill="rgb(99,99,235)"/><path d=" M 23.85 45.107 C 23.85 45.107 23.85 45.038 23.85 45.107 C 23.919 42.895 23.504 40.613 23.228 38.401 C 23.089 36.811 22.813 35.29 22.675 33.7 C 22.536 31.903 22.467 30.106 22.329 28.377 C 22.26 27.548 22.191 26.718 22.122 25.958 C 21.983 25.059 21.707 24.23 21.499 23.331 C 21.223 22.432 21.016 21.603 20.463 20.842 C 20.117 20.358 19.702 19.943 19.218 19.529 C 19.08 19.39 17.421 18.215 17.559 18.077 C 17.559 18.077 16.591 19.874 14.863 20.013 C 15.347 19.943 15.693 21.672 15.9 22.017 C 16.246 22.778 16.73 23.262 16.937 24.091 C 17.283 25.128 17.49 26.165 17.628 27.202 C 17.974 29.345 18.181 31.419 18.319 33.562 C 18.458 35.29 18.596 37.088 18.734 38.816 C 18.873 40.959 18.112 41.927 17.075 43.586 C 18.389 43.724 19.979 43.24 21.292 43.033 L 21.569 45.107 C 21.499 45.176 23.089 45.383 23.85 45.107 Z " fill="rgb(99,99,235)"/><path d=" M 19.84 10.818 C 19.84 11.579 19.149 11.924 18.458 11.786 C 18.25 11.786 18.112 11.855 18.112 12.063 C 18.112 14.067 16.66 15.312 14.932 15.865 C 14.863 15.865 14.794 16.003 14.794 16.072 C 14.794 16.141 14.794 16.141 14.794 16.21 C 14.794 16.279 14.863 16.349 15.001 16.279 C 15.347 16.21 15.623 16.141 15.9 16.072 L 15.969 16.072 C 15.969 16.141 15.969 16.21 15.969 16.279 C 15.969 16.487 15.969 16.694 15.969 16.902 C 16.038 17.178 16.176 17.455 16.384 17.662 C 16.591 17.87 16.799 17.939 17.075 18.077 C 16.868 18.492 16.66 18.907 16.246 19.114 C 15.762 19.39 15.14 19.529 14.517 19.529 L 14.448 19.529 C 13.48 19.529 12.513 19.183 11.821 18.561 C 12.098 18.423 12.305 18.215 12.443 17.939 C 12.582 17.939 12.651 17.87 12.72 17.731 C 12.789 17.317 12.72 16.902 12.582 16.418 C 12.513 16.21 12.513 16.003 12.443 15.796 C 12.72 15.934 13.066 16.003 13.411 16.003 C 13.55 16.003 13.688 15.865 13.619 15.727 C 13.619 15.657 13.619 15.588 13.55 15.588 C 13.55 15.588 13.48 15.588 13.48 15.519 C 11.752 15.035 10.577 13.791 10.577 11.994 C 10.577 11.786 10.37 11.717 10.231 11.717 C 9.609 11.855 8.849 11.44 8.849 10.749 C 8.849 10.058 9.609 9.712 10.162 10.127 C 10.37 10.265 10.577 10.058 10.577 9.85 L 10.577 9.712 C 10.646 9.712 10.715 9.643 10.646 9.574 C 10.646 9.297 10.577 9.09 10.508 8.813 C 10.508 7.777 10.508 6.809 10.508 5.772 C 10.577 5.703 10.577 5.703 10.577 5.634 C 10.646 5.426 10.646 5.15 10.715 4.942 C 10.715 4.873 10.715 4.804 10.784 4.735 C 10.784 4.666 10.784 4.666 10.784 4.666 C 12.651 5.357 14.725 5.634 16.729 5.426 C 17.075 5.426 17.421 5.357 17.766 5.219 C 17.905 5.288 18.043 5.357 18.181 5.357 C 18.181 5.772 18.181 6.117 18.181 6.532 C 18.181 7.638 18.181 8.744 18.181 9.85 C 18.181 10.058 18.458 10.265 18.596 10.127 C 19.08 9.781 19.84 10.127 19.84 10.818 Z " fill="rgb(255,255,255)"/><path d=" M 17.559 18.077 C 16.868 19.321 15.416 20.013 14.033 19.805 C 14.172 19.736 14.31 19.667 14.379 19.598 C 14.517 19.46 14.586 19.321 14.656 19.183 C 14.794 18.906 14.794 18.561 14.794 18.215 C 14.794 17.593 14.794 16.902 14.794 16.279 C 14.794 16.349 14.863 16.418 15.001 16.349 C 15.347 16.279 15.623 16.21 15.9 16.141 C 15.9 16.21 15.9 16.279 15.9 16.349 C 16.107 17.109 16.73 17.8 17.559 18.077 Z " fill="rgb(225,225,255)"/><path d=" M 19.84 10.818 C 19.84 11.579 19.149 11.924 18.458 11.786 C 18.25 11.786 18.112 11.855 18.112 12.063 C 18.112 14.067 16.66 15.312 14.932 15.865 C 14.863 15.865 14.794 16.003 14.794 16.072 C 14.379 16.072 13.964 16.003 13.55 15.796 C 13.48 15.727 13.342 15.727 13.273 15.657 C 13.342 15.657 13.411 15.657 13.48 15.657 C 14.448 15.588 15.347 15.173 16.107 14.551 C 16.868 13.86 17.352 12.892 17.49 11.855 C 17.697 10.127 16.937 8.399 17.075 6.601 C 16.384 7.016 15.485 7.085 14.656 6.947 C 13.826 6.809 13.066 6.463 12.305 6.117 C 11.683 5.841 11.061 5.426 10.646 4.942 C 10.646 4.873 10.646 4.804 10.715 4.735 C 10.715 4.666 10.715 4.666 10.715 4.666 C 12.582 5.357 14.656 5.634 16.66 5.426 C 17.006 5.426 17.352 5.357 17.697 5.219 C 17.836 5.288 17.974 5.357 18.112 5.357 C 18.112 5.772 18.112 6.117 18.112 6.532 C 18.112 7.638 18.112 8.744 18.112 9.85 C 18.112 10.058 18.389 10.265 18.527 10.127 C 19.08 9.781 19.84 10.127 19.84 10.818 Z " fill="rgb(225,225,255)"/><path d=" M 12.72 8.952 L 12.72 8.813 C 12.72 8.744 12.651 8.675 12.582 8.606 C 12.513 8.537 12.443 8.537 12.374 8.606 C 12.305 8.606 12.236 8.675 12.167 8.744 C 12.029 9.021 12.029 9.297 12.098 9.505 C 12.098 9.574 12.167 9.643 12.236 9.712 C 12.305 9.781 12.374 9.781 12.443 9.712 C 12.513 9.712 12.582 9.643 12.651 9.574 C 12.72 9.505 12.72 9.436 12.651 9.367 L 12.651 9.228 C 12.651 9.159 12.651 9.159 12.651 9.09 C 12.72 9.09 12.72 9.021 12.72 8.952 L 12.651 9.09 L 12.72 8.952 L 12.72 8.952 Z " fill="rgb(55,43,123)"/><path d=" M 16.384 8.744 C 16.315 8.675 16.246 8.675 16.176 8.675 C 16.107 8.675 16.038 8.675 15.969 8.744 C 15.9 8.813 15.9 8.883 15.9 8.952 C 15.9 9.159 15.9 9.297 15.9 9.505 C 15.9 9.574 15.969 9.712 15.969 9.712 C 16.038 9.781 16.107 9.781 16.176 9.781 C 16.246 9.781 16.384 9.781 16.384 9.712 C 16.453 9.643 16.453 9.574 16.453 9.505 C 16.453 9.297 16.453 9.159 16.453 8.952 C 16.453 8.883 16.453 8.813 16.384 8.744 Z " fill="rgb(55,43,123)"/><path d=" M 12.651 7.293 C 12.374 7.293 12.167 7.293 11.89 7.362 C 11.614 7.431 11.407 7.569 11.199 7.776 C 11.13 7.846 11.13 7.915 11.199 7.984 C 11.268 8.053 11.337 8.053 11.407 8.053 C 11.614 7.915 11.752 7.846 11.96 7.776 C 12.098 7.707 12.167 7.707 12.305 7.707 C 12.374 7.707 12.513 7.707 12.582 7.707 C 12.651 7.707 12.789 7.638 12.789 7.5 C 12.858 7.431 12.789 7.362 12.651 7.293 Z " fill="rgb(55,43,123)"/><path d=" M 15.762 7.638 C 15.9 7.638 16.038 7.707 16.176 7.707 C 16.453 7.776 16.66 7.915 16.868 8.122 C 17.006 8.26 17.283 8.053 17.144 7.846 C 16.937 7.638 16.66 7.5 16.315 7.431 C 16.176 7.362 16.038 7.362 15.9 7.431 C 15.762 7.431 15.623 7.5 15.485 7.569 L 15.485 7.638 C 15.485 7.569 15.623 7.569 15.762 7.638 Z " fill="rgb(55,43,123)"/><path d=" M 15.347 13.1 C 15.07 13.376 14.656 13.514 14.31 13.514 C 13.895 13.584 13.48 13.514 13.135 13.238 C 13.066 13.169 12.927 13.238 12.858 13.307 C 12.789 13.376 12.858 13.514 12.927 13.584 C 13.342 13.86 13.826 13.998 14.31 13.998 C 14.863 13.998 15.278 13.791 15.693 13.376 C 15.9 13.238 15.623 12.892 15.347 13.1 Z " fill="rgb(55,43,123)"/><path d=" M 13.895 12.616 C 14.033 12.616 14.103 12.616 14.241 12.616 C 14.379 12.616 14.517 12.616 14.586 12.547 C 14.725 12.477 14.794 12.477 14.932 12.408 C 15.001 12.339 15.07 12.27 15.001 12.201 C 14.932 12.132 14.863 12.063 14.794 12.063 C 14.656 12.063 14.656 12.063 14.517 12.132 C 14.379 12.132 14.31 12.201 14.172 12.201 L 14.103 12.201 L 13.895 12.201 C 13.826 12.201 13.757 12.201 13.688 12.27 L 13.619 12.477 L 13.688 12.616 C 13.757 12.616 13.826 12.616 13.895 12.616 Z " fill="rgb(55,43,123)"/><path d=" M 21.707 78.151 C 20.324 78.496 19.011 78.566 17.559 78.289 C 17.006 73.934 16.66 69.579 16.246 65.154 C 16.038 62.804 15.9 60.454 15.623 58.172 C 15.485 56.306 15.347 54.232 14.932 52.434 C 15.001 52.227 15.001 52.02 15.001 51.743 C 15.001 51.398 15.07 51.052 15.07 50.706 C 15.07 50.084 15.14 49.393 15.14 48.771 C 15.14 48.148 15.14 47.457 15.14 46.835 C 15.14 46.213 15.209 45.452 14.932 44.899 L 14.863 44.899 C 14.656 45.521 14.725 46.213 14.725 46.835 C 14.725 47.457 14.656 48.148 14.656 48.771 C 14.656 49.393 14.656 50.084 14.586 50.706 C 14.586 51.052 14.586 51.398 14.517 51.743 C 14.517 51.951 14.517 52.158 14.517 52.296 C 14.033 54.163 13.964 56.237 13.826 58.103 C 13.619 60.592 13.411 63.08 13.204 65.5 C 12.789 69.993 12.443 74.487 11.89 78.98 C 10.508 79.257 9.125 79.188 7.743 78.842 C 8.226 69.44 8.365 60.039 8.641 50.637 C 8.71 48.218 8.849 45.867 8.849 43.448 C 9.056 43.586 9.263 43.655 9.54 43.724 C 10.853 44.001 12.167 44.139 13.48 44.208 C 15.969 44.346 18.458 44.07 20.808 43.517 C 20.808 49.255 21.085 54.992 21.223 60.73 C 21.292 66.606 21.43 72.344 21.707 78.151 Z " fill="rgb(71,63,151)"/><path d=" M 14.794 44.001 C 14.794 44.001 11.96 67.09 11.821 69.579 C 11.683 72.067 9.747 79.672 10.024 79.672 C 10.3 79.672 11.752 79.05 11.752 79.05 L 14.794 52.78 L 14.794 44.001 L 14.794 44.001 Z " fill="rgb(55,43,123)"/><path d=" M 14.794 44.346 C 14.794 47.111 14.794 49.946 14.794 52.711 C 14.794 52.987 14.794 53.264 14.863 53.541 C 14.932 53.886 15.139 54.232 15.278 54.508 C 16.66 57.135 17.144 60.108 17.628 63.011 C 17.905 64.67 18.112 66.33 18.389 67.989 C 18.942 71.583 19.495 75.178 19.979 78.773 C 20.739 78.704 21.499 78.566 22.26 78.496 C 21.914 73.45 21.776 68.403 21.776 63.357 C 21.776 62.182 21.776 60.937 21.776 59.762 C 21.638 54.232 20.67 48.701 20.739 43.171 C 18.665 43.655 16.522 43.862 14.448 43.724 L 14.794 44.346 L 14.794 44.346 Z " fill="rgb(55,43,123)"/><path d=" M 26.339 43.793 C 25.371 38.47 24.541 33.216 23.919 27.824 C 23.642 25.612 23.504 22.985 22.26 20.98 C 21.776 20.22 21.085 19.598 20.255 19.114 C 19.495 18.699 18.389 18.077 17.49 18.077 C 17.49 17.939 17.49 17.869 17.49 17.731 C 17.49 17.593 17.283 17.524 17.144 17.593 C 16.729 17.455 16.384 17.178 16.246 16.763 C 16.176 16.556 16.176 16.349 16.176 16.072 C 16.176 16.003 16.246 15.934 16.246 15.865 C 17.49 15.173 18.389 13.86 18.527 12.408 C 19.495 12.408 20.393 11.786 20.255 10.749 C 20.186 9.85 19.287 9.366 18.527 9.574 L 18.527 9.505 C 18.803 9.021 19.08 8.537 19.356 7.984 C 19.633 7.5 19.909 6.947 19.979 6.394 C 20.117 5.703 19.909 4.942 19.426 4.527 C 19.495 4.458 19.495 4.32 19.495 4.251 C 20.048 3.767 20.255 3.214 20.048 2.523 C 19.771 1.486 18.803 0.863 17.766 0.587 C 16.66 0.241 15.485 0.103 14.31 0.172 C 13.273 0.241 12.236 0.518 11.268 1.071 C 10.853 1.347 10.508 1.624 10.162 1.97 C 9.816 2.315 9.609 2.799 9.333 3.214 C 9.194 3.421 8.987 3.421 8.71 3.629 C 8.503 3.767 8.365 3.974 8.296 4.182 C 8.088 4.735 8.157 5.288 8.365 5.841 C 8.572 6.463 8.849 7.154 9.125 7.776 C 9.333 8.26 9.54 8.813 9.747 9.297 L 9.747 9.574 C 8.987 9.366 8.088 9.92 8.019 10.749 C 7.95 11.786 8.78 12.477 9.747 12.408 C 9.886 13.722 10.577 15.035 11.752 15.657 C 11.752 15.796 11.821 15.865 11.821 15.934 C 11.89 16.141 11.89 16.349 11.96 16.556 C 12.029 16.902 12.029 17.178 12.029 17.524 C 11.89 17.869 11.545 18.215 11.13 18.215 C 10.992 18.215 10.923 18.284 10.853 18.423 C 8.641 19.321 6.567 20.427 5.669 22.709 C 4.632 25.059 4.563 27.755 4.493 30.313 C 4.424 33.424 4.148 36.604 4.01 39.715 C 3.94 41.374 3.802 43.033 3.871 44.623 C 3.871 44.968 3.802 45.314 4.079 45.521 C 4.286 45.66 4.563 45.798 4.839 45.867 C 4.77 46.005 4.632 46.213 4.632 46.351 C 4.563 46.628 4.563 46.904 4.563 47.111 C 4.563 47.664 4.701 48.218 5.047 48.701 C 5.323 49.116 5.738 49.531 6.222 49.738 C 6.567 49.946 7.259 50.222 7.604 49.946 L 7.604 49.877 C 7.673 49.807 7.743 49.738 7.673 49.669 C 7.604 49.324 7.466 49.047 7.328 48.771 C 7.259 48.632 7.12 48.494 7.051 48.356 L 6.982 48.287 C 7.12 48.218 7.259 48.148 7.397 48.01 C 7.673 47.664 7.673 47.25 7.604 46.835 C 7.535 46.628 7.535 46.42 7.466 46.213 C 7.466 46.074 7.466 46.005 7.466 45.867 C 7.466 45.729 7.535 45.66 7.535 45.521 L 7.397 45.452 L 7.328 45.383 C 7.12 45.314 6.844 45.314 6.567 45.314 C 6.36 45.314 6.222 45.314 6.014 45.314 C 5.807 45.245 5.6 45.245 5.323 45.176 C 5.185 45.176 5.047 45.107 4.908 45.038 C 4.563 45.038 4.424 44.899 4.563 44.554 C 4.424 44.001 4.563 43.171 4.563 42.618 C 4.563 41.235 4.632 39.853 4.701 38.47 C 4.839 35.774 5.047 33.078 5.116 30.382 C 5.185 28.032 5.254 25.612 6.014 23.331 C 6.844 20.842 8.849 19.736 11.13 18.768 C 12.029 19.736 13.342 20.289 14.656 20.22 C 15.416 20.22 16.176 20.013 16.799 19.529 C 17.075 19.321 17.283 19.045 17.421 18.699 C 17.49 18.561 17.559 18.353 17.559 18.215 C 18.319 18.768 19.426 18.976 20.186 19.459 C 21.292 20.151 21.983 21.188 22.398 22.432 C 23.159 24.782 23.366 27.271 23.573 29.691 C 24.057 34.461 24.887 39.231 25.786 44.001 C 24.749 44.623 23.573 44.968 22.329 45.038 L 22.191 44.899 C 22.122 44.899 21.983 44.899 21.983 45.038 C 21.845 45.038 21.776 45.038 21.638 45.038 C 21.569 44.484 21.499 43.862 21.43 43.309 C 21.569 43.171 21.499 42.964 21.361 42.825 C 21.361 42.756 21.361 42.687 21.361 42.618 C 21.223 39.645 21.016 36.742 20.877 33.769 C 20.808 32.249 20.67 30.659 20.601 29.138 C 20.532 27.686 20.532 26.096 20.186 24.644 C 20.186 24.575 20.048 24.575 20.048 24.644 C 19.84 26.234 20.048 27.893 20.117 29.483 C 20.186 31.004 20.255 32.456 20.324 33.977 C 20.463 36.949 20.601 39.922 20.739 42.895 C 18.458 43.448 16.176 43.793 13.826 43.724 C 12.582 43.724 11.268 43.586 10.024 43.378 C 9.747 43.309 9.333 43.309 9.056 43.171 C 8.641 42.964 8.641 42.687 8.572 42.272 C 8.503 41.65 8.572 41.028 8.572 40.406 C 8.572 37.917 8.572 35.428 8.572 32.94 C 8.572 30.451 8.78 27.824 8.434 25.336 C 8.434 25.266 8.296 25.266 8.296 25.336 C 7.881 28.101 8.088 31.073 8.019 33.838 C 8.296 36.673 8.296 39.507 8.296 42.411 C 8.296 42.825 8.365 43.102 8.503 43.24 C 8.019 47.734 8.019 52.365 7.881 56.928 C 7.743 61.836 7.604 66.675 7.397 71.583 C 7.328 74.072 7.19 76.63 7.051 79.119 L 7.051 79.257 C 6.775 80.501 6.291 81.745 5.6 82.852 C 5.254 83.405 4.908 83.889 4.701 84.511 C 4.563 84.995 4.424 85.617 4.977 85.893 C 5.53 86.239 6.291 86.377 6.913 86.446 C 7.535 86.515 8.157 86.446 8.71 86.239 C 9.263 86.032 9.678 85.686 10.024 85.271 C 10.439 84.718 10.508 84.027 10.923 83.474 C 11.337 82.852 11.821 82.437 12.098 81.745 C 12.305 81.054 12.374 80.363 12.236 79.672 L 12.236 79.602 C 12.858 75.04 13.273 70.408 13.619 65.776 C 13.826 63.288 14.033 60.799 14.241 58.38 C 14.379 57.204 14.517 55.96 14.656 54.716 C 14.794 55.891 14.932 57.066 15.001 58.241 C 15.209 60.661 15.416 63.011 15.623 65.431 C 15.969 69.924 16.384 74.418 16.937 78.842 C 16.937 78.98 17.075 79.049 17.213 79.049 C 17.144 79.672 17.075 80.225 17.144 80.847 C 17.213 81.469 17.421 81.884 17.905 82.229 C 18.181 82.368 18.458 82.506 18.665 82.713 C 18.873 82.921 19.08 83.197 19.218 83.474 C 19.564 83.958 19.84 84.442 20.324 84.787 C 21.361 85.409 22.675 85.202 23.781 84.995 C 24.334 84.856 24.887 84.787 25.025 84.165 C 25.163 83.612 24.818 83.128 24.403 82.713 C 23.85 82.091 23.366 81.469 22.951 80.778 C 22.536 80.086 22.26 79.395 21.983 78.635 C 22.052 78.566 22.052 78.496 22.052 78.427 C 21.776 72.551 21.638 66.675 21.43 60.799 C 21.292 55.061 21.292 49.254 20.739 43.517 L 20.877 43.517 C 20.946 44.139 20.946 44.83 21.016 45.452 C 21.016 45.729 21.499 45.798 21.499 45.452 C 21.569 45.452 21.638 45.452 21.776 45.452 C 21.776 45.729 21.776 46.074 21.914 46.351 C 21.983 46.558 22.052 46.766 22.191 46.904 C 22.329 47.111 22.467 47.25 22.675 47.388 L 22.744 47.388 C 22.744 47.526 22.744 47.734 22.744 47.872 C 22.744 47.941 22.813 48.079 22.951 48.079 C 23.642 48.079 24.196 47.388 24.057 46.697 C 24.057 46.628 23.919 46.558 23.85 46.558 C 23.781 46.558 23.712 46.697 23.712 46.766 C 23.781 47.181 23.435 47.595 23.089 47.664 C 23.089 47.319 23.089 46.973 23.089 46.558 C 23.089 46.213 23.089 45.867 23.02 45.521 C 23.297 45.521 23.573 45.452 23.781 45.452 C 24.057 45.383 24.334 45.314 24.61 45.176 C 24.61 45.936 24.679 46.628 24.679 47.388 C 24.749 48.079 24.749 48.701 24.126 49.185 C 23.712 49.531 23.089 49.669 22.536 49.807 C 22.191 49.877 21.983 49.807 21.983 49.462 C 21.983 49.185 21.983 48.978 22.052 48.701 C 22.052 48.563 21.914 48.494 21.845 48.632 C 21.569 49.116 21.361 49.877 21.914 50.222 C 22.26 50.43 22.675 50.291 23.02 50.153 C 23.366 50.084 23.642 49.946 23.988 49.807 C 24.679 49.462 25.094 48.909 25.094 48.079 C 25.094 47.595 25.025 47.111 25.025 46.628 C 24.956 46.074 24.956 45.591 24.887 45.107 C 25.163 44.968 25.509 44.83 25.786 44.692 C 25.924 44.692 26.062 44.623 26.062 44.554 C 26.684 44.208 26.615 43.862 26.339 43.793 Z  M 6.706 45.867 C 6.844 45.867 7.051 45.936 7.19 45.936 L 7.19 46.005 C 7.19 46.213 7.19 46.351 7.19 46.558 C 7.259 46.904 7.328 47.25 7.259 47.595 C 7.19 47.803 7.051 48.01 6.844 48.01 C 6.775 48.01 6.706 48.01 6.636 47.941 C 6.567 47.803 6.567 47.595 6.567 47.457 C 6.567 46.973 6.567 46.558 6.567 46.074 C 6.636 46.005 6.706 45.936 6.706 45.867 Z  M 5.254 45.936 C 5.669 46.005 6.014 46.074 6.36 46.144 C 6.291 46.628 6.291 47.042 6.222 47.457 C 6.222 47.664 6.153 47.872 6.291 48.079 C 6.36 48.218 6.498 48.356 6.706 48.356 L 6.844 48.356 L 6.982 48.563 C 7.051 48.701 7.12 48.84 7.19 48.909 C 7.259 49.116 7.328 49.324 7.397 49.531 C 7.328 49.531 7.259 49.531 7.19 49.462 C 6.982 49.393 6.775 49.324 6.636 49.254 C 6.222 49.047 5.945 48.701 5.669 48.356 C 5.047 47.664 5.047 46.766 5.254 45.936 Z  M 16.246 19.114 C 15.762 19.39 15.14 19.529 14.517 19.529 C 13.48 19.529 12.513 19.183 11.752 18.561 C 12.029 18.423 12.236 18.215 12.374 17.939 C 12.513 17.939 12.582 17.869 12.651 17.731 C 12.72 17.316 12.651 16.902 12.513 16.487 C 12.443 16.279 12.443 16.072 12.374 15.865 C 12.651 16.003 12.996 16.072 13.342 16.072 C 13.619 16.072 13.688 15.657 13.411 15.588 C 11.683 15.104 10.508 13.86 10.508 12.063 C 10.508 11.855 10.3 11.717 10.162 11.786 C 9.54 11.924 8.78 11.579 8.78 10.818 C 8.78 10.127 9.54 9.781 10.093 10.196 C 10.3 10.334 10.508 10.127 10.508 9.92 L 10.508 9.712 C 10.577 9.712 10.577 9.643 10.577 9.574 C 10.577 9.297 10.508 9.09 10.508 8.813 C 10.508 7.776 10.508 6.809 10.508 5.772 L 10.577 5.633 C 10.646 5.357 10.715 5.08 10.715 4.735 L 10.715 4.666 C 12.582 5.357 14.656 5.703 16.66 5.426 C 17.006 5.426 17.352 5.357 17.697 5.219 C 17.836 5.288 17.974 5.357 18.112 5.357 C 18.043 5.772 18.112 6.117 18.112 6.532 C 18.112 7.638 18.112 8.744 18.112 9.85 C 18.112 10.058 18.389 10.265 18.527 10.127 C 19.08 9.712 19.84 10.058 19.84 10.749 C 19.84 11.44 19.08 11.855 18.458 11.717 C 18.25 11.717 18.112 11.786 18.112 11.993 C 18.112 13.929 16.66 15.243 14.863 15.796 C 14.656 15.865 14.656 16.279 14.932 16.279 C 15.278 16.21 15.623 16.141 15.9 16.003 C 15.831 16.279 15.831 16.556 15.9 16.833 C 15.969 17.109 16.107 17.386 16.315 17.593 C 16.522 17.8 16.729 17.939 17.006 18.008 C 16.868 18.492 16.591 18.906 16.246 19.114 Z  M 11.545 81.469 C 11.337 82.022 10.992 82.437 10.646 82.852 C 9.955 83.681 9.886 84.925 8.918 85.548 C 7.881 86.17 6.567 85.962 5.461 85.548 C 5.323 85.479 5.185 85.479 5.116 85.34 C 5.047 85.202 5.116 84.995 5.116 84.856 C 5.185 84.58 5.323 84.303 5.461 84.027 C 5.738 83.543 6.083 83.059 6.36 82.506 C 6.844 81.538 7.19 80.501 7.397 79.395 C 8.78 79.741 10.231 79.81 11.683 79.602 C 11.683 79.672 11.683 79.741 11.683 79.81 C 11.752 80.363 11.752 80.916 11.545 81.469 Z  M 23.228 81.676 C 23.573 82.16 23.919 82.575 24.265 82.99 C 24.472 83.197 24.679 83.405 24.679 83.681 C 24.749 84.096 24.403 84.234 24.126 84.303 C 23.159 84.58 21.914 84.856 20.946 84.372 C 19.979 83.889 19.771 82.782 18.942 82.16 C 18.734 82.022 18.458 81.884 18.25 81.745 C 17.905 81.538 17.766 81.262 17.697 80.916 C 17.559 80.294 17.628 79.602 17.559 78.98 L 17.559 78.911 C 18.942 79.119 20.324 79.049 21.707 78.704 C 22.052 79.741 22.606 80.778 23.228 81.676 Z  M 21.154 60.799 C 21.292 66.606 21.43 72.413 21.707 78.151 C 20.324 78.496 18.942 78.566 17.559 78.289 C 17.006 73.934 16.66 69.579 16.246 65.154 C 16.038 62.804 15.9 60.453 15.623 58.103 C 15.485 56.237 15.347 54.163 14.932 52.365 C 15.001 52.158 15.001 51.951 15.001 51.674 C 15.001 51.328 15.001 50.983 15.07 50.637 C 15.07 50.015 15.14 49.324 15.14 48.701 C 15.14 48.079 15.14 47.388 15.14 46.766 C 15.14 46.144 15.14 45.383 14.932 44.83 L 14.863 44.83 C 14.656 45.452 14.725 46.144 14.725 46.766 C 14.725 47.388 14.656 48.079 14.656 48.701 C 14.656 49.324 14.656 50.015 14.586 50.637 C 14.586 50.983 14.586 51.328 14.517 51.674 C 14.517 51.881 14.448 52.089 14.517 52.227 C 14.033 54.094 13.964 56.167 13.757 58.034 C 13.55 60.523 13.342 63.011 13.135 65.431 C 12.72 69.924 12.374 74.418 11.821 78.911 C 10.439 79.188 9.056 79.119 7.673 78.773 C 8.157 69.371 8.296 59.97 8.572 50.568 C 8.641 48.148 8.78 45.729 8.78 43.378 C 8.987 43.517 9.194 43.586 9.471 43.655 C 10.784 43.931 12.098 44.07 13.411 44.139 C 15.9 44.277 18.389 44.001 20.739 43.448 C 20.739 49.254 21.016 55.061 21.154 60.799 Z  M 22.951 46.558 C 22.951 46.628 22.951 46.766 22.951 46.835 C 22.606 46.42 22.398 46.005 22.398 45.452 C 22.606 45.452 22.744 45.452 22.951 45.452 C 22.951 45.867 22.951 46.213 22.951 46.558 Z " fill="rgb(55,43,123)"/><path d=" M 11.752 2.177 L 11.96 2.246 C 12.305 2.177 12.582 2.039 12.927 1.97 C 13.273 1.9 13.55 1.831 13.895 1.762 C 14.241 1.762 14.517 1.693 14.863 1.762 C 15.209 1.762 15.554 1.831 15.831 1.831 C 16.107 1.831 16.176 1.417 15.9 1.278 C 15.278 1.14 14.517 1.14 13.826 1.278 C 13.135 1.347 12.374 1.555 11.821 1.9 C 11.752 1.97 11.752 2.039 11.752 2.177 Z " fill="rgb(255,255,255)"/><path d=" M 17.559 2.108 C 17.559 1.9 17.49 1.762 17.49 1.555 L 17.421 1.624 L 17.283 1.693 L 17.283 1.831 L 17.283 1.97 L 17.283 2.039 L 17.352 2.108 L 17.421 2.108 L 17.559 2.108 L 17.697 2.039 L 17.766 1.97 L 17.836 1.9 L 17.836 1.762 L 17.836 1.693 L 17.766 1.555 L 17.697 1.486 L 17.559 1.417 L 17.421 1.417 L 17.352 1.486 L 17.283 1.693 L 17.283 1.831 L 17.283 1.9 L 17.352 2.039 L 17.421 2.108 L 17.559 2.108 L 17.559 2.108 Z " fill="rgb(255,255,255)"/><path d=" M 76.665 71.169 L 77.218 77.805 C 77.218 77.805 76.458 77.39 76.319 79.119 C 76.112 80.847 76.043 81.746 77.08 82.229 C 78.117 82.713 79.016 84.303 79.361 84.442 C 79.707 84.58 80.467 85.548 82.334 85.064 C 84.2 84.58 83.993 84.096 83.647 83.336 C 83.302 82.575 81.366 81.123 81.089 79.602 C 80.813 78.082 79.638 77.667 79.638 77.667 L 79.914 70.685 L 76.665 71.169 L 76.665 71.169 Z " fill="rgb(255,255,255)"/><path d=" M 78.324 71.307 L 78.739 77.874 C 78.739 77.874 79.016 77.943 79.707 78.566 C 80.398 79.188 81.228 81.746 81.504 82.299 C 81.781 82.852 83.025 83.266 82.195 83.958 C 81.435 84.649 79.43 84.511 79.43 84.511 C 79.43 84.511 80.052 85.479 82.403 85.133 C 84.753 84.787 84.339 84.234 83.716 83.405 C 83.094 82.575 81.712 80.778 81.159 79.672 C 80.605 78.566 80.605 78.151 79.707 77.736 C 79.983 73.588 79.914 70.961 79.914 70.961 L 78.324 71.307 L 78.324 71.307 Z " fill="rgb(225,225,255)"/><path d=" M 67.955 71.03 C 67.678 71.376 67.471 77.045 67.471 77.045 C 67.471 77.045 66.434 76.906 65.881 78.704 C 65.328 80.501 64.982 82.437 63.945 83.75 C 62.908 85.064 63.669 86.239 65.259 86.239 C 66.849 86.239 68.231 86.308 68.923 84.234 C 69.614 82.16 70.443 82.921 70.651 81.123 C 70.996 78.22 70.098 78.635 70.098 78.635 L 70.996 71.169 L 67.955 71.03 L 67.955 71.03 Z " fill="rgb(255,255,255)"/><path d=" M 63.53 85.064 C 64.083 85.271 64.775 85.409 65.397 85.34 C 65.604 85.34 65.881 85.271 66.088 85.133 C 66.226 84.995 66.365 84.787 66.434 84.58 C 67.194 82.852 68.162 81.123 69.268 79.603 C 69.337 79.464 69.476 79.326 69.406 79.188 C 69.337 78.773 68.784 78.842 68.646 78.566 C 68.439 78.22 68.646 77.459 68.646 77.114 C 68.715 75.939 68.923 74.833 69.061 73.657 C 69.199 72.897 69.337 72.206 69.476 71.514 C 69.959 71.514 70.513 71.307 70.927 71.307 C 70.029 73.381 70.582 75.731 70.167 77.943 C 70.098 78.22 70.029 78.496 69.959 78.704 C 70.167 78.566 70.374 78.98 70.443 79.257 C 70.513 79.948 70.513 80.709 70.513 81.4 C 70.513 81.607 70.513 81.884 70.443 82.091 C 70.305 82.437 70.098 82.644 69.89 82.921 C 69.545 83.336 69.199 83.819 68.923 84.303 C 68.784 84.58 68.577 84.926 68.37 85.202 C 67.886 85.824 67.125 86.101 66.365 86.101 C 65.604 86.17 64.844 85.962 64.083 85.755 L 63.53 85.064 L 63.53 85.064 Z " fill="rgb(225,225,255)"/><path d=" M 81.573 45.314 C 81.504 46.005 81.919 46.697 82.541 46.904 C 82.61 47.111 82.61 47.388 82.61 47.595 C 82.61 47.803 82.472 48.079 82.265 48.217 C 82.195 48.287 82.057 48.287 81.988 48.356 C 81.642 48.563 81.573 49.047 81.573 49.462 C 81.573 49.6 81.573 49.738 81.642 49.807 C 81.712 49.877 81.85 49.877 81.988 49.877 C 82.61 49.807 83.232 49.6 83.855 49.324 C 85.375 48.632 85.03 45.936 84.2 44.899 C 83.924 44.968 81.573 45.176 81.573 45.314 Z " fill="rgb(255,255,255)"/><path d=" M 64.567 45.452 C 64.222 45.591 64.153 46.005 64.153 46.351 C 64.153 47.111 64.291 47.941 64.706 48.563 C 65.189 49.324 66.088 49.808 66.987 49.877 C 66.987 49.324 66.78 48.701 66.365 48.287 C 66.572 48.287 66.78 48.079 66.918 47.872 C 66.987 47.664 67.056 47.388 67.056 47.181 C 67.056 46.697 66.987 46.213 66.849 45.729 C 66.434 45.521 65.95 45.383 65.535 45.383 L 64.567 45.452 L 64.567 45.452 Z " fill="rgb(255,255,255)"/><path d=" M 68.024 42.825 C 67.886 42.687 67.471 71.099 67.471 71.099 C 67.471 71.099 70.443 71.791 72.033 71.238 C 73.278 58.103 74.453 52.365 74.453 52.365 L 75.697 70.961 C 75.697 70.961 77.149 72.136 80.052 70.685 C 80.191 65.154 80.398 43.309 80.398 43.309 C 80.398 43.309 70.996 45.452 68.024 42.825 Z " fill="rgb(119,119,255)"/><path d=" M 74.107 44.139 L 75.006 48.356 C 75.006 48.356 77.218 52.849 77.426 55.131 C 77.633 57.412 78.601 59.97 77.979 60.246 C 77.426 60.523 75.974 60.799 76.734 61.145 C 77.495 61.49 77.84 61.629 77.84 61.629 L 77.979 71.445 L 80.122 71.307 L 80.329 43.309 C 80.398 43.24 76.319 44.968 74.107 44.139 Z " fill="rgb(99,99,235)"/><path d=" M 69.821 71.307 C 69.821 71.307 70.789 62.942 70.789 62.113 C 70.789 61.283 69.821 61.007 69.337 60.454 C 68.853 59.9 70.513 60.73 70.927 60.039 C 71.342 59.347 72.725 52.988 73.07 50.844 C 73.416 48.701 74.315 46.42 74.315 46.42 L 74.591 53.333 L 72.033 71.238 L 69.821 71.307 L 69.821 71.307 Z " fill="rgb(99,99,235)"/><path d=" M 63.669 45.314 C 65.812 45.867 67.747 45.591 67.747 45.591 L 68.024 42.895 C 68.024 42.895 69.89 44.208 73.9 44.139 C 77.909 44.07 80.675 42.964 80.675 42.964 L 81.159 45.452 C 81.159 45.452 83.094 45.591 85.514 44.208 C 84.961 39.991 83.509 30.935 83.302 29.207 C 83.094 27.548 82.749 24.16 81.988 21.879 C 81.228 19.598 77.011 18.008 77.011 18.008 C 77.011 18.008 75.766 24.575 75.213 26.303 C 74.66 28.032 74.176 30.244 74.176 30.244 C 74.176 30.244 72.033 23.815 71.549 22.363 C 71.066 20.842 71.204 19.321 71.204 19.321 L 70.305 18.353 C 70.305 18.353 66.641 19.736 65.328 22.916 C 64.222 26.165 64.014 35.982 64.014 35.982 L 63.669 45.314 L 63.669 45.314 Z " fill="rgb(71,63,151)"/><path d=" M 79.361 10.818 C 79.361 11.579 78.601 11.924 77.979 11.786 C 77.771 11.717 77.633 11.855 77.633 12.063 C 77.633 12.961 76.942 13.722 76.389 14.413 C 75.836 15.035 75.283 15.657 74.868 16.349 C 74.729 16.556 75.075 16.833 75.213 16.625 L 75.352 16.487 C 75.352 16.625 75.352 16.763 75.421 16.902 C 75.49 17.178 75.628 17.455 75.836 17.662 C 76.043 17.87 76.25 17.939 76.527 18.077 C 76.389 18.492 76.112 18.906 75.697 19.114 C 75.213 19.39 74.591 19.529 73.969 19.529 C 73.001 19.529 71.964 19.183 71.204 18.561 C 71.48 18.423 71.688 18.215 71.826 17.939 C 71.964 17.939 72.033 17.87 72.103 17.731 C 72.172 17.316 72.103 16.833 71.964 16.418 C 71.895 16.279 71.895 16.072 71.826 15.934 C 71.895 16.003 71.964 16.072 72.033 16.141 C 72.241 16.349 72.517 16.072 72.379 15.865 C 71.688 14.551 69.96 13.583 69.89 11.993 C 69.89 11.786 69.683 11.717 69.545 11.717 C 68.923 11.855 68.162 11.51 68.162 10.749 C 68.162 10.058 68.923 9.712 69.476 10.127 C 69.683 10.265 69.89 10.058 69.89 9.85 L 69.89 9.712 C 70.029 9.643 70.098 9.574 70.098 9.436 C 69.89 7.984 69.89 6.463 70.029 5.011 C 70.305 5.219 70.582 5.357 70.927 5.495 C 71.273 5.703 71.619 5.91 71.964 6.048 C 72.448 6.256 73.07 6.256 73.347 5.772 C 73.485 5.564 73.554 5.357 73.554 5.15 C 74.729 5.979 76.25 6.809 77.564 6.394 C 77.564 7.569 77.495 8.744 77.564 9.85 C 77.564 10.058 77.84 10.265 77.979 10.127 C 78.601 9.781 79.361 10.127 79.361 10.818 Z " fill="rgb(255,255,255)"/><path d=" M 71.066 4.735 C 70.858 4.597 70.789 5.011 70.927 5.219 C 71.273 5.772 71.619 6.325 72.241 6.601 C 72.863 6.878 73.623 6.809 73.969 6.256 C 74.591 6.947 75.421 7.5 76.319 7.777 C 76.458 9.436 76.596 11.164 76.043 12.685 C 75.559 14.275 74.246 15.727 72.656 15.934 C 73.001 16.349 73.554 16.556 74.107 16.487 C 74.522 17.455 74.591 18.63 74.246 19.667 C 75.49 19.736 76.803 18.906 77.218 17.662 C 76.389 17.593 75.697 16.833 75.628 16.003 C 76.803 14.966 77.702 13.514 78.048 11.924 C 78.739 12.201 79.638 11.579 79.638 10.818 C 79.638 10.058 78.67 9.436 77.979 9.781 C 78.048 8.606 78.048 7.431 78.117 6.256 C 78.117 5.91 78.117 5.564 77.979 5.219 C 77.84 4.942 77.564 4.735 77.356 4.597 C 76.458 3.974 75.49 3.49 74.384 3.421 C 73.278 3.352 72.172 3.698 71.48 4.527 L 71.066 4.735 L 71.066 4.735 Z " fill="rgb(225,225,255)"/><path d=" M 72.241 8.952 L 72.241 8.813 C 72.241 8.744 72.172 8.675 72.103 8.606 C 72.033 8.537 71.964 8.537 71.895 8.606 C 71.826 8.606 71.757 8.675 71.688 8.744 C 71.549 9.021 71.549 9.297 71.619 9.505 C 71.619 9.574 71.688 9.643 71.757 9.712 C 71.826 9.781 71.895 9.781 71.964 9.712 C 72.033 9.712 72.103 9.643 72.172 9.574 C 72.241 9.505 72.241 9.436 72.172 9.366 L 72.172 9.228 C 72.172 9.159 72.172 9.159 72.172 9.09 C 72.172 9.09 72.172 9.021 72.241 8.952 L 72.172 9.09 L 72.241 8.952 L 72.241 8.952 Z " fill="rgb(55,43,123)"/><path d=" M 75.836 8.744 C 75.766 8.675 75.697 8.675 75.628 8.675 C 75.559 8.675 75.49 8.675 75.421 8.744 C 75.352 8.813 75.352 8.883 75.352 8.952 C 75.352 9.09 75.352 9.297 75.352 9.436 C 75.352 9.505 75.421 9.643 75.421 9.643 C 75.49 9.712 75.559 9.712 75.628 9.712 C 75.697 9.712 75.836 9.712 75.836 9.643 C 75.905 9.574 75.974 9.505 75.905 9.436 C 75.905 9.228 75.905 9.09 75.905 8.883 C 75.974 8.883 75.905 8.813 75.836 8.744 Z " fill="rgb(55,43,123)"/><path d=" M 73.831 13.998 C 74.384 13.998 74.799 13.791 75.213 13.376 C 75.421 13.169 75.075 12.823 74.868 13.03 C 74.591 13.307 74.176 13.445 73.831 13.445 C 73.416 13.514 73.001 13.445 72.656 13.169 C 72.586 13.1 72.448 13.169 72.379 13.238 C 72.31 13.307 72.379 13.445 72.448 13.514 C 72.863 13.929 73.347 14.067 73.831 13.998 Z " fill="rgb(55,43,123)"/><path d=" M 73.416 12.616 C 73.554 12.616 73.623 12.616 73.762 12.616 C 73.9 12.616 74.038 12.616 74.107 12.546 C 74.246 12.477 74.315 12.477 74.453 12.408 C 74.522 12.339 74.591 12.27 74.522 12.201 C 74.453 12.132 74.384 12.063 74.315 12.063 C 74.176 12.063 74.176 12.063 74.038 12.132 C 73.9 12.132 73.831 12.201 73.693 12.201 L 73.623 12.201 L 73.416 12.201 C 73.347 12.201 73.278 12.201 73.209 12.27 L 73.139 12.408 L 73.209 12.546 C 73.278 12.616 73.347 12.616 73.416 12.616 Z " fill="rgb(55,43,123)"/><path d=" M 85.79 43.793 C 84.822 38.47 83.993 33.216 83.44 27.824 C 83.163 25.612 83.025 22.985 81.85 20.98 C 81.366 20.22 80.675 19.598 79.845 19.114 C 79.085 18.699 77.979 18.077 77.08 18.077 C 77.08 18.008 77.08 17.939 77.08 17.87 C 77.08 17.8 77.08 17.8 77.08 17.731 C 77.08 17.593 76.872 17.524 76.734 17.593 C 76.319 17.455 75.974 17.178 75.905 16.763 C 75.836 16.556 75.836 16.349 75.836 16.072 C 75.836 16.003 75.905 15.934 75.905 15.865 C 76.319 15.381 76.734 14.897 77.149 14.413 C 77.633 13.791 78.048 13.169 78.186 12.408 C 79.154 12.408 80.052 11.786 79.914 10.68 C 79.845 9.781 78.946 9.297 78.186 9.505 L 78.186 9.159 C 78.532 8.053 78.739 6.878 78.67 5.772 C 78.877 5.495 78.946 5.15 79.016 4.804 C 79.085 3.905 78.601 3.076 78.048 2.454 C 76.942 1.209 75.352 0.38 73.693 0.172 C 72.172 -0.035 70.236 0.241 69.199 1.555 C 68.577 2.315 68.577 3.283 69.061 4.043 C 69.13 4.113 69.13 4.182 69.199 4.251 C 68.577 5.011 68.508 5.979 68.646 6.878 C 68.784 7.777 69.13 8.675 69.476 9.574 C 68.715 9.366 67.816 9.92 67.747 10.749 C 67.609 11.786 68.577 12.477 69.545 12.408 C 69.752 13.583 70.651 14.62 71.48 15.519 C 71.48 15.588 71.48 15.657 71.48 15.726 C 71.48 15.796 71.549 15.934 71.549 16.003 C 71.619 16.21 71.619 16.418 71.688 16.625 C 71.757 16.971 71.757 17.316 71.757 17.593 C 71.619 17.939 71.273 18.284 70.858 18.284 C 70.72 18.284 70.651 18.353 70.651 18.492 C 68.439 19.39 66.365 20.427 65.397 22.778 C 64.36 25.197 64.291 27.824 64.222 30.382 C 64.083 33.493 63.876 36.673 63.738 39.784 C 63.669 41.443 63.53 43.102 63.6 44.692 C 63.6 45.038 63.53 45.383 63.807 45.591 C 64.014 45.729 64.291 45.867 64.567 45.936 C 64.498 46.074 64.36 46.282 64.36 46.42 C 64.291 46.697 64.291 46.973 64.291 47.181 C 64.291 47.734 64.429 48.287 64.775 48.771 C 65.051 49.185 65.466 49.6 65.95 49.808 C 66.296 50.015 66.987 50.291 67.333 50.015 C 67.402 49.946 67.471 49.877 67.402 49.808 C 67.333 49.531 67.194 49.185 67.056 48.909 C 66.987 48.771 66.849 48.632 66.78 48.494 C 66.78 48.494 66.78 48.494 66.71 48.425 C 66.849 48.356 66.987 48.287 67.125 48.148 C 67.402 47.803 67.402 47.388 67.333 46.973 C 67.263 46.766 67.263 46.558 67.194 46.351 C 67.194 46.213 67.194 46.144 67.194 46.005 C 67.194 45.867 67.263 45.798 67.263 45.66 C 67.263 45.591 67.194 45.591 67.125 45.591 L 67.056 45.521 C 66.849 45.452 66.572 45.452 66.296 45.452 C 66.088 45.452 65.95 45.452 65.743 45.383 C 65.535 45.314 65.328 45.314 65.12 45.245 C 64.982 45.176 64.844 45.176 64.636 45.107 C 64.291 45.107 64.153 44.968 64.291 44.623 C 64.153 44.07 64.291 43.24 64.291 42.687 C 64.291 41.305 64.36 39.922 64.429 38.539 C 64.567 35.843 64.775 33.147 64.844 30.451 C 64.913 28.101 64.982 25.681 65.743 23.4 C 66.434 21.464 67.816 20.358 69.476 19.459 C 69.545 20.704 69.89 21.879 70.167 23.054 C 70.513 24.437 70.858 25.819 71.273 27.133 C 71.688 28.446 72.103 29.76 72.586 31.004 C 73.001 32.041 73.416 33.078 74.107 33.977 C 74.038 37.226 74.107 40.406 74.176 43.655 C 74.038 43.655 73.831 43.655 73.693 43.655 C 72.448 43.655 71.204 43.517 69.89 43.309 C 69.614 43.24 69.199 43.24 68.923 43.102 C 68.508 42.895 68.508 42.618 68.439 42.203 C 68.37 41.581 68.439 40.959 68.439 40.337 C 68.439 37.848 68.439 35.359 68.508 32.871 C 68.508 30.382 68.715 27.755 68.37 25.266 C 68.37 25.197 68.231 25.197 68.231 25.266 C 67.816 28.032 68.024 31.004 67.955 33.769 C 67.747 36.673 67.747 39.507 67.747 42.411 C 67.747 42.825 67.816 43.102 67.955 43.309 C 67.402 47.872 67.54 52.573 67.471 57.135 C 67.402 61.767 67.333 66.399 67.125 71.03 C 67.125 71.169 67.194 71.238 67.333 71.307 C 67.471 71.307 67.54 71.376 67.678 71.376 C 67.54 71.86 67.54 72.413 67.54 72.897 C 67.471 73.45 67.471 74.003 67.402 74.625 C 67.333 75.178 67.263 75.8 67.263 76.423 C 67.263 76.699 67.194 76.976 67.194 77.252 C 67.194 77.183 67.125 77.114 66.987 77.114 C 66.503 77.321 66.088 77.598 65.95 78.082 C 65.743 78.635 65.812 79.257 65.673 79.81 C 65.466 80.709 65.12 81.538 64.706 82.299 C 64.291 82.99 63.807 83.612 63.53 84.372 C 63.323 84.995 63.185 85.686 63.876 85.962 C 64.567 86.308 65.397 86.515 66.226 86.515 C 66.918 86.515 67.609 86.308 68.231 85.893 C 68.784 85.479 69.13 84.925 69.337 84.303 C 69.545 83.819 69.752 83.405 70.167 83.059 C 70.443 82.782 70.651 82.437 70.789 82.091 C 71.135 81.331 71.204 80.501 71.066 79.741 C 71.066 79.672 71.066 79.602 71.066 79.533 C 71.066 79.188 70.996 78.911 70.927 78.566 C 70.858 78.427 70.72 78.358 70.582 78.358 C 70.513 78.358 70.513 78.358 70.513 78.427 C 70.582 78.082 70.582 77.736 70.651 77.39 C 70.72 76.768 70.858 76.077 70.927 75.455 C 71.135 74.21 71.273 72.966 71.342 71.791 C 71.619 71.791 71.964 71.722 72.241 71.653 L 72.31 71.653 C 72.31 71.653 72.31 71.653 72.379 71.583 L 72.379 71.514 L 72.379 71.238 C 72.863 68.058 73.209 64.878 73.485 61.629 C 73.623 60.108 73.762 58.656 73.9 57.135 C 73.969 56.306 74.107 55.476 74.176 54.716 C 74.176 54.577 74.176 54.439 74.246 54.232 C 74.246 54.37 74.246 54.439 74.246 54.508 C 74.315 55.338 74.384 56.167 74.453 56.997 C 74.591 58.518 74.66 60.039 74.66 61.56 C 74.799 64.74 75.006 67.92 75.49 71.1 C 75.49 71.1 75.49 71.169 75.559 71.169 C 75.559 71.169 75.559 71.238 75.628 71.238 L 75.697 71.238 C 75.697 71.238 75.697 71.238 75.766 71.238 C 76.112 71.307 76.458 71.376 76.803 71.376 C 76.734 73.381 77.287 75.386 77.356 77.39 C 77.356 77.667 77.84 77.667 77.771 77.39 C 77.702 75.386 77.287 73.381 77.011 71.376 C 77.909 71.445 78.808 71.376 79.638 71.169 C 79.776 73.243 79.845 75.386 79.776 77.459 C 79.776 77.529 79.776 77.529 79.845 77.598 C 79.845 77.667 79.845 77.667 79.914 77.667 C 79.707 77.529 79.43 77.459 79.223 77.459 C 78.946 77.529 78.393 77.736 78.186 78.013 C 78.117 78.013 78.048 78.012 78.048 78.082 C 78.048 78.22 77.979 78.358 77.979 78.496 L 77.909 78.427 L 77.84 78.358 L 77.771 78.289 L 77.633 78.151 C 77.633 78.082 77.564 78.013 77.564 78.013 C 77.564 77.943 77.495 77.874 77.495 77.805 L 77.426 77.667 L 77.287 77.598 L 77.218 77.598 L 77.149 77.667 L 77.149 77.805 C 77.149 77.874 77.149 78.012 77.149 78.082 C 77.149 78.22 77.218 78.358 77.287 78.566 C 77.356 78.704 77.426 78.842 77.564 78.911 C 77.633 78.98 77.702 79.049 77.771 79.049 C 77.84 79.119 77.979 79.188 78.048 79.119 C 78.117 79.326 78.186 79.533 78.255 79.672 C 78.532 80.225 78.739 80.778 79.016 81.331 C 79.223 81.746 79.499 82.229 79.983 82.368 C 80.26 82.437 81.089 82.368 81.02 81.884 C 81.02 81.815 80.882 81.746 80.813 81.746 C 80.675 81.746 80.536 81.884 80.398 81.953 C 80.26 81.953 80.052 81.953 79.914 81.815 C 79.569 81.607 79.43 81.123 79.223 80.778 C 79.016 80.363 78.808 79.879 78.601 79.464 C 78.462 79.257 78.393 79.049 78.324 78.773 C 78.255 78.635 78.186 78.427 78.186 78.289 C 78.117 78.012 78.532 77.874 78.739 77.805 C 78.946 77.736 79.154 77.736 79.292 77.805 C 79.499 77.874 79.569 78.082 79.638 78.22 C 79.707 78.496 79.845 78.704 79.914 78.98 C 80.122 79.464 80.26 79.948 80.536 80.432 C 80.675 80.639 80.744 80.916 80.882 81.123 C 80.951 81.262 81.02 81.4 81.089 81.469 C 81.159 81.607 81.228 81.676 81.089 81.815 C 80.951 81.884 81.02 82.091 81.159 82.091 C 81.435 82.229 81.642 81.815 81.573 81.607 C 81.573 81.4 81.435 81.262 81.366 81.123 C 81.297 80.985 81.228 80.778 81.159 80.639 C 80.813 79.948 80.536 79.257 80.26 78.496 C 80.122 78.22 80.052 77.874 79.845 77.667 L 79.914 77.667 C 80.191 77.736 80.26 78.082 80.398 78.289 C 80.467 78.566 80.606 78.842 80.744 79.188 C 81.02 79.81 81.366 80.432 81.712 81.054 C 82.057 81.607 82.472 82.16 82.887 82.644 C 83.163 82.99 84.2 83.889 83.371 84.234 C 82.818 84.511 82.126 84.58 81.504 84.58 C 80.951 84.649 80.329 84.58 79.776 84.303 C 79.223 84.027 78.946 83.474 78.601 82.99 C 78.324 82.506 77.979 82.16 77.426 81.884 C 77.08 81.676 76.803 81.538 76.665 81.123 C 76.527 80.778 76.596 80.363 76.527 79.948 C 76.527 79.602 76.527 79.188 76.527 78.842 C 76.527 78.635 76.665 77.39 77.011 77.459 C 77.08 77.459 77.218 77.321 77.08 77.252 C 75.905 76.699 76.043 80.501 76.112 81.054 C 76.181 81.4 76.319 81.746 76.596 81.953 C 76.872 82.229 77.287 82.299 77.564 82.506 C 78.117 82.99 78.393 83.75 78.946 84.234 C 80.052 85.34 81.712 85.064 83.094 84.787 C 83.44 84.718 83.785 84.649 83.993 84.303 C 84.2 84.027 84.2 83.681 84.131 83.405 C 84.062 83.059 83.855 82.852 83.578 82.575 C 83.302 82.229 83.025 81.884 82.749 81.538 C 82.126 80.709 81.642 79.879 81.228 78.98 C 80.951 78.427 80.813 77.252 80.052 77.183 C 80.191 75.109 80.191 73.035 79.983 70.961 C 80.122 70.892 80.26 70.892 80.398 70.892 C 80.536 70.892 80.605 70.754 80.605 70.616 C 80.398 65.984 80.467 61.352 80.605 56.79 C 80.744 52.296 80.951 47.734 80.467 43.24 C 80.536 43.24 80.536 43.24 80.605 43.24 C 80.675 43.862 80.675 44.554 80.744 45.176 C 80.744 45.452 81.228 45.452 81.228 45.176 C 81.297 45.176 81.366 45.176 81.504 45.176 C 81.504 45.452 81.504 45.798 81.642 46.074 C 81.712 46.282 81.781 46.489 81.919 46.628 C 82.057 46.835 82.195 46.973 82.403 47.111 L 82.472 47.111 C 82.472 47.25 82.472 47.388 82.472 47.595 C 82.472 47.664 82.541 47.803 82.679 47.803 C 83.371 47.803 83.924 47.111 83.855 46.42 C 83.855 46.351 83.716 46.282 83.647 46.282 C 83.578 46.282 83.509 46.42 83.509 46.489 C 83.578 46.904 83.232 47.319 82.887 47.388 C 82.887 47.042 82.887 46.628 82.887 46.282 C 82.887 45.936 82.887 45.591 82.818 45.245 C 83.094 45.245 83.371 45.176 83.578 45.107 C 83.855 45.038 84.131 44.968 84.408 44.899 C 84.408 45.66 84.477 46.351 84.477 47.111 C 84.546 47.803 84.546 48.425 83.924 48.84 C 83.44 49.185 82.887 49.324 82.334 49.462 C 81.988 49.531 81.781 49.462 81.781 49.116 C 81.781 48.84 81.781 48.563 81.85 48.356 C 81.85 48.218 81.712 48.148 81.642 48.287 C 81.366 48.771 81.159 49.531 81.712 49.808 C 82.057 50.015 82.472 49.877 82.818 49.738 C 83.163 49.669 83.509 49.531 83.785 49.393 C 84.477 49.047 84.892 48.494 84.892 47.734 C 84.892 47.25 84.822 46.766 84.822 46.282 C 84.753 45.798 84.684 45.245 84.684 44.761 C 84.961 44.623 85.306 44.485 85.583 44.277 C 85.721 44.277 85.79 44.208 85.859 44.07 C 86.136 44.208 86.067 43.862 85.79 43.793 Z  M 66.157 45.867 C 66.365 45.867 66.503 45.936 66.641 45.936 L 66.641 46.005 C 66.641 46.213 66.641 46.351 66.641 46.558 C 66.71 46.904 66.78 47.25 66.71 47.595 C 66.641 47.803 66.503 48.01 66.296 48.01 C 66.226 48.01 66.157 48.01 66.088 47.941 C 66.019 47.803 66.019 47.595 66.019 47.457 C 66.019 46.973 66.019 46.558 66.019 46.074 C 66.088 46.005 66.157 45.936 66.157 45.867 Z  M 64.636 45.936 C 65.051 46.005 65.466 46.074 65.743 46.144 C 65.673 46.558 65.673 47.042 65.604 47.457 C 65.604 47.664 65.535 47.941 65.673 48.079 C 65.743 48.218 65.881 48.356 66.088 48.356 C 66.157 48.356 66.157 48.356 66.226 48.356 C 66.296 48.425 66.296 48.494 66.365 48.563 C 66.434 48.701 66.503 48.84 66.572 48.909 C 66.641 49.116 66.71 49.324 66.78 49.531 C 66.71 49.531 66.641 49.462 66.572 49.462 C 66.365 49.393 66.157 49.324 66.019 49.254 C 65.604 49.047 65.328 48.701 65.051 48.356 C 64.498 47.664 64.429 46.766 64.636 45.936 Z  M 77.08 18.284 C 77.356 18.492 77.702 18.63 78.048 18.768 C 77.702 21.326 77.426 23.884 76.803 26.442 C 76.25 28.792 75.421 31.004 74.453 33.216 C 74.453 32.249 74.384 31.281 74.315 30.313 C 74.384 30.244 74.453 30.244 74.453 30.105 C 75.075 28.17 75.49 26.234 75.905 24.299 C 76.25 22.57 76.527 20.773 76.734 19.045 C 76.803 18.976 76.872 18.837 76.942 18.768 C 77.011 18.561 77.08 18.423 77.08 18.284 Z  M 74.246 20.22 C 75.006 20.22 75.766 20.013 76.319 19.529 C 75.974 21.119 75.628 22.709 75.282 24.229 C 74.868 25.889 74.384 27.548 73.969 29.276 C 73.139 25.958 71.895 22.778 71.342 19.39 C 72.172 19.943 73.209 20.289 74.246 20.22 Z  M 71.826 18.008 C 71.964 18.008 72.033 17.939 72.103 17.8 C 72.172 17.386 72.103 16.902 71.964 16.487 C 71.895 16.349 71.895 16.141 71.826 16.003 C 71.895 16.072 71.964 16.141 72.033 16.21 C 72.241 16.418 72.517 16.141 72.379 15.934 C 71.688 14.62 69.959 13.653 69.89 12.063 C 69.89 11.855 69.683 11.786 69.545 11.786 C 68.923 11.924 68.162 11.579 68.162 10.818 C 68.162 10.127 68.923 9.781 69.476 10.196 C 69.683 10.334 69.89 10.127 69.89 9.92 L 69.89 9.781 C 70.029 9.712 70.098 9.643 70.098 9.505 C 69.89 8.053 69.89 6.532 70.029 5.08 C 70.305 5.288 70.582 5.426 70.927 5.564 C 71.066 5.633 71.135 5.703 71.273 5.772 C 71.48 5.91 71.688 5.979 71.964 6.117 C 72.448 6.325 73.07 6.325 73.347 5.841 C 73.485 5.633 73.554 5.426 73.554 5.219 C 74.729 6.048 76.25 6.878 77.564 6.463 C 77.564 7.638 77.495 8.813 77.564 9.92 C 77.564 10.127 77.84 10.334 77.979 10.196 C 78.532 9.781 79.292 10.127 79.292 10.818 C 79.292 11.579 78.532 11.924 77.909 11.786 C 77.702 11.717 77.564 11.855 77.564 12.063 C 77.564 12.961 76.872 13.722 76.319 14.413 C 75.766 15.035 75.213 15.657 74.799 16.349 C 74.66 16.556 75.006 16.833 75.144 16.625 L 75.282 16.487 C 75.282 16.625 75.282 16.763 75.352 16.902 C 75.421 17.178 75.559 17.455 75.766 17.662 C 75.974 17.87 76.181 17.939 76.458 18.077 C 76.319 18.492 76.043 18.906 75.628 19.114 C 75.213 19.39 74.66 19.529 74.176 19.529 C 74.107 19.529 73.969 19.529 73.9 19.529 C 72.932 19.529 71.895 19.183 71.135 18.561 C 71.48 18.492 71.688 18.284 71.826 18.008 Z  M 73.9 33.216 C 72.725 31.281 71.964 28.861 71.273 26.718 C 70.858 25.474 70.513 24.299 70.236 23.054 C 69.959 21.81 69.752 20.566 69.337 19.39 C 69.752 19.183 70.236 18.976 70.651 18.768 C 70.789 18.837 70.858 18.976 70.996 19.045 C 71.204 22.985 72.932 26.718 73.762 30.52 C 73.762 30.659 73.9 30.728 73.969 30.728 C 73.969 31.626 73.969 32.456 73.9 33.216 Z  M 67.194 78.635 C 67.263 78.635 67.402 78.635 67.471 78.635 C 67.678 78.635 67.886 78.704 68.093 78.704 C 68.439 78.842 68.784 78.98 69.061 79.326 C 69.061 79.326 69.13 79.326 69.199 79.395 C 69.13 79.464 69.061 79.533 69.061 79.672 C 68.992 79.81 68.853 79.948 68.784 80.156 C 68.577 80.432 68.439 80.778 68.231 81.054 C 68.024 81.331 67.886 81.607 67.678 81.953 C 67.471 82.229 67.333 82.575 67.194 82.852 C 66.987 82.713 66.849 82.644 66.641 82.575 C 66.503 82.506 66.296 82.506 66.157 82.506 L 66.088 82.506 C 66.365 81.953 66.572 81.4 66.78 80.916 C 66.918 80.086 67.125 79.395 67.194 78.635 Z  M 70.374 79.464 C 70.374 79.602 70.374 79.741 70.374 79.879 C 70.374 79.948 70.374 80.017 70.374 80.086 C 70.374 80.156 70.443 80.225 70.443 80.294 C 70.443 80.778 70.374 81.262 70.167 81.676 C 69.89 82.299 69.406 82.713 69.061 83.266 C 68.715 83.75 68.646 84.372 68.3 84.925 C 67.955 85.479 67.333 85.755 66.78 85.893 C 66.088 86.032 65.397 85.962 64.706 85.755 C 64.498 85.686 64.36 85.617 64.153 85.548 C 63.876 85.409 63.807 85.202 63.876 84.925 C 63.945 84.58 64.083 84.234 64.291 83.958 C 64.982 82.852 65.604 81.746 66.019 80.432 C 66.157 79.879 66.226 79.326 66.226 78.704 C 66.296 78.013 66.434 77.598 67.125 77.321 C 67.125 77.321 67.125 77.252 67.194 77.252 L 67.194 77.321 C 67.194 77.598 67.125 77.943 67.125 78.289 C 67.125 78.289 67.125 78.289 67.056 78.289 C 66.918 78.22 66.71 78.358 66.71 78.496 C 66.572 79.257 66.434 79.948 66.296 80.709 C 66.157 81.331 65.95 81.953 65.743 82.575 L 65.673 82.575 C 65.604 82.644 65.535 82.644 65.535 82.782 C 65.535 82.852 65.604 82.921 65.673 82.921 C 65.743 82.921 65.743 82.921 65.812 82.921 C 65.881 82.921 66.019 82.921 66.088 82.921 C 66.157 82.921 66.226 82.921 66.296 82.921 C 66.365 82.921 66.434 82.921 66.503 82.99 C 66.78 83.059 66.987 83.197 67.194 83.405 C 67.263 83.474 67.471 83.474 67.54 83.405 C 67.609 83.335 67.678 83.128 67.54 83.059 C 67.471 82.99 67.402 82.99 67.402 82.921 C 67.609 82.644 67.886 82.437 68.093 82.16 C 68.3 81.884 68.508 81.607 68.715 81.262 C 68.923 80.985 69.13 80.709 69.268 80.363 C 69.406 80.225 69.476 80.086 69.545 79.879 C 69.545 79.879 69.545 79.879 69.545 79.81 C 69.821 79.81 70.029 79.533 70.167 79.326 C 70.236 79.188 70.305 79.119 70.374 78.98 L 70.374 79.049 L 70.374 79.119 C 70.374 79.257 70.374 79.395 70.374 79.464 Z  M 70.305 75.386 C 70.236 76.008 70.167 76.561 70.098 77.183 C 70.029 77.529 70.029 77.874 69.959 78.22 C 69.959 78.358 69.89 78.566 69.89 78.704 C 69.821 78.842 69.752 78.911 69.683 79.049 L 69.614 79.188 L 69.614 79.257 C 69.614 79.257 69.614 79.257 69.614 79.326 L 69.545 79.257 C 69.545 79.188 69.545 79.049 69.476 78.98 C 69.13 78.635 68.715 78.358 68.231 78.289 C 68.024 78.22 67.816 78.22 67.54 78.22 C 67.609 78.012 67.609 77.736 67.609 77.529 C 67.609 77.183 67.678 76.837 67.678 76.561 C 67.747 76.008 67.816 75.386 67.816 74.763 C 67.886 74.21 67.886 73.657 67.886 73.035 C 67.886 72.759 67.886 72.413 67.886 72.136 C 67.886 71.929 67.886 71.653 67.886 71.445 C 68.853 71.653 69.821 71.722 70.789 71.653 C 70.651 72.897 70.443 74.141 70.305 75.386 Z  M 79.983 57.066 C 79.845 61.629 79.776 66.122 79.983 70.685 C 78.67 71.03 77.287 71.1 75.974 70.823 C 75.559 67.643 75.352 64.532 75.213 61.352 C 75.144 59.9 75.075 58.38 75.006 56.928 C 74.937 55.476 74.868 53.817 74.522 52.365 C 74.591 52.158 74.591 51.951 74.591 51.743 C 74.591 51.398 74.66 51.052 74.66 50.706 C 74.66 50.084 74.729 49.393 74.729 48.771 C 74.729 48.148 74.729 47.457 74.729 46.835 C 74.729 46.213 74.729 45.452 74.522 44.899 L 74.384 44.899 C 74.176 45.521 74.246 46.213 74.246 46.835 C 74.246 47.457 74.176 48.148 74.176 48.771 C 74.176 49.393 74.107 50.084 74.107 50.706 C 74.107 51.052 74.038 51.398 74.038 51.743 C 74.038 51.951 74.038 52.089 74.038 52.227 C 73.623 53.679 73.554 55.338 73.416 56.72 C 73.278 58.241 73.139 59.831 72.932 61.352 C 72.656 64.532 72.31 67.712 71.826 70.892 C 70.443 71.1 69.13 71.1 67.816 70.685 C 68.024 66.122 68.093 61.56 68.093 56.997 C 68.093 52.434 68.3 47.941 68.3 43.378 C 68.508 43.517 68.715 43.586 68.992 43.586 C 70.305 43.862 71.619 44.001 72.932 44.07 C 75.421 44.208 77.84 43.931 80.26 43.378 C 80.052 48.079 80.191 52.573 79.983 57.066 Z  M 82.403 46.558 C 82.403 46.628 82.403 46.766 82.403 46.835 C 82.057 46.42 81.85 46.005 81.85 45.452 C 82.057 45.452 82.195 45.452 82.403 45.452 C 82.403 45.867 82.403 46.213 82.403 46.558 Z  M 81.85 45.038 C 81.85 44.968 81.781 44.968 81.712 44.899 C 81.642 44.899 81.504 44.899 81.504 45.038 C 81.366 45.038 81.297 45.038 81.159 45.038 C 81.089 44.485 81.02 43.862 80.951 43.309 C 81.089 43.171 81.02 42.964 80.882 42.825 C 80.882 42.756 80.882 42.687 80.882 42.618 C 80.744 39.645 80.536 36.742 80.398 33.769 C 80.329 32.249 80.191 30.659 80.122 29.138 C 80.052 27.617 80.052 26.096 79.707 24.644 C 79.707 24.575 79.569 24.575 79.569 24.644 C 79.361 26.234 79.569 27.893 79.638 29.483 C 79.707 30.935 79.776 32.456 79.845 33.977 C 79.983 36.949 80.122 39.922 80.26 42.895 C 78.324 43.378 76.319 43.655 74.315 43.724 C 74.315 40.544 74.384 37.364 74.384 34.253 C 75.49 31.834 76.389 29.276 77.08 26.649 C 77.702 24.16 78.186 21.533 78.186 18.976 C 78.739 19.183 79.223 19.39 79.707 19.667 C 80.813 20.358 81.504 21.395 81.919 22.639 C 82.679 24.99 82.887 27.409 83.094 29.898 C 83.578 34.668 84.408 39.438 85.306 44.208 C 84.269 44.623 83.094 44.968 81.85 45.038 Z " fill="rgb(55,43,123)"/><path d=" M 71.342 19.39 C 71.688 21.464 72.241 23.4 72.863 25.405 C 73.347 23.676 73.9 22.017 74.038 20.22 C 73.139 20.22 72.172 19.943 71.342 19.39 Z " fill="rgb(225,225,255)"/><path d=" M 76.319 19.529 C 75.766 20.013 74.937 20.22 74.246 20.22 C 74.176 20.22 74.176 20.22 74.107 20.22 C 73.9 22.017 73.416 23.676 72.932 25.405 C 73.347 26.649 73.692 27.962 74.038 29.207 C 74.453 27.548 74.937 25.889 75.352 24.16 C 75.697 22.709 76.043 21.119 76.319 19.529 C 76.389 19.529 76.389 19.529 76.319 19.529 Z " fill="rgb(183,183,255)"/><path d=" M 72.517 7.431 C 72.517 7.293 72.379 7.154 72.31 7.224 C 71.964 7.224 71.688 7.362 71.342 7.5 C 71.273 7.569 71.204 7.638 71.273 7.777 C 71.342 7.846 71.411 7.915 71.48 7.915 C 71.619 7.846 71.757 7.846 71.895 7.777 L 71.964 7.777 L 72.033 7.777 C 72.103 7.777 72.172 7.777 72.241 7.777 C 72.379 7.638 72.517 7.569 72.517 7.431 Z " fill="rgb(55,43,123)"/><path d=" M 75.49 7.846 C 75.559 7.846 75.697 7.846 75.766 7.846 C 75.836 7.846 75.974 7.846 76.043 7.846 C 76.112 7.846 76.181 7.846 76.25 7.777 C 76.319 7.707 76.319 7.638 76.319 7.569 C 76.319 7.431 76.181 7.293 76.043 7.293 C 75.974 7.293 75.836 7.293 75.766 7.293 C 75.697 7.293 75.559 7.293 75.49 7.293 L 75.352 7.362 L 75.282 7.5 L 75.352 7.638 C 75.352 7.777 75.421 7.846 75.49 7.846 Z " fill="rgb(55,43,123)"/><path d=" M 74.176 16.349 L 74.038 16.349 L 73.9 16.349 L 73.762 16.349 L 73.692 16.349 L 73.623 16.349 C 73.416 16.349 73.278 16.349 73.07 16.279 C 73.001 16.279 72.932 16.279 72.863 16.349 C 72.863 16.418 72.863 16.556 72.932 16.556 C 73.139 16.625 73.347 16.694 73.623 16.763 C 73.762 16.763 73.831 16.763 73.969 16.763 C 74.107 16.763 74.246 16.694 74.315 16.694 C 74.453 16.625 74.522 16.556 74.522 16.418 C 74.453 16.418 74.315 16.349 74.176 16.349 Z " fill="rgb(55,43,123)"/><path d=" M 71.135 38.47 C 71.619 38.47 72.103 38.47 72.517 38.47 C 72.586 38.47 72.725 38.401 72.725 38.263 L 72.725 38.125 C 72.725 38.055 72.586 37.917 72.517 37.917 C 72.033 37.917 71.549 37.917 71.135 37.917 C 70.651 37.917 70.236 37.917 69.752 37.917 C 69.476 37.917 69.476 38.263 69.752 38.332 C 70.236 38.401 70.651 38.401 71.135 38.47 Z " fill="rgb(55,43,123)"/><path d=" M 78.67 37.572 C 78.532 37.572 78.393 37.641 78.255 37.71 C 77.979 37.779 77.771 37.848 77.495 37.917 C 77.218 37.986 77.011 37.986 76.734 38.055 C 76.596 38.055 76.458 38.055 76.319 38.125 C 76.181 38.125 76.043 38.194 75.905 38.194 C 75.766 38.194 75.697 38.401 75.836 38.47 C 76.112 38.539 76.319 38.608 76.665 38.608 C 76.942 38.608 77.149 38.608 77.426 38.608 C 77.702 38.608 77.979 38.539 78.255 38.47 C 78.393 38.401 78.532 38.332 78.67 38.332 C 78.808 38.263 78.946 38.194 78.946 37.986 C 79.016 37.71 78.877 37.572 78.67 37.572 Z " fill="rgb(55,43,123)"/><path d=" M 71.342 1.831 C 71.964 1.693 72.586 1.693 73.209 1.762 C 73.485 1.831 73.831 1.9 74.107 1.97 C 74.384 2.039 74.66 2.177 75.006 2.315 C 75.352 2.453 75.559 1.9 75.213 1.762 C 74.66 1.417 73.9 1.347 73.278 1.278 C 72.586 1.209 71.895 1.347 71.273 1.486 C 71.066 1.555 71.135 1.9 71.342 1.831 Z " fill="rgb(255,255,255)"/><path d=" M 76.942 3.007 L 77.011 2.937 L 77.149 2.799 L 77.218 2.661 L 77.149 2.523 L 77.011 2.384 L 76.942 2.315 C 76.872 2.315 76.803 2.246 76.734 2.246 C 76.665 2.246 76.596 2.246 76.527 2.315 C 76.389 2.384 76.319 2.523 76.319 2.661 C 76.319 2.799 76.389 2.937 76.527 3.007 C 76.596 3.007 76.665 3.076 76.734 3.076 C 76.803 3.076 76.872 3.076 76.942 3.007 Z " fill="rgb(255,255,255)"/><path d=" M 39.75 78.151 L 29.933 78.151 L 29.933 78.842 L 39.75 78.842 L 39.75 78.151 Z " fill="rgb(55,43,123)"/><path d=" M 30.832 80.225 L 30.832 77.114 L 27.168 78.704 L 30.832 80.225 L 30.832 80.225 Z " fill="rgb(55,43,123)"/><path d=" M 60.973 78.151 L 51.847 78.151 L 51.847 78.842 L 60.973 78.842 L 60.973 78.151 Z " fill="rgb(55,43,123)"/><path d=" M 60.143 80.225 L 60.143 77.114 L 63.738 78.704 L 60.143 80.225 L 60.143 80.225 Z " fill="rgb(55,43,123)"/></g><text transform="matrix(0.333,0,0,0.333,39.671,81.598)" style="font-family:'Open Sans';font-weight:400;font-size:24px;font-style:normal;fill:#372b7b;stroke:none;">2m</text></g></svg>