<?xml version="1.0" encoding="UTF-8" standalone="no"?><!-- Generator: Gravit.io --><svg xmlns="http://www.w3.org/2000/svg" xmlns:xlink="http://www.w3.org/1999/xlink" style="isolation:isolate" viewBox="0 0 86.2 90" width="86.2pt" height="90pt"><defs><clipPath id="_clipPath_GUUOkq2SobcgdM9RGVa9LdamEfndr9jR"><rect width="86.2" height="90"/></clipPath></defs><g clip-path="url(#_clipPath_GUUOkq2SobcgdM9RGVa9LdamEfndr9jR)"><g><path d=" M 86.191 24.546 C 86.191 32.859 82.334 39.592 77.564 39.592 C 72.793 39.592 68.937 32.859 68.937 24.546 C 68.937 24.546 72.111 23.473 73.124 23.004 C 74.311 22.458 77.7 20.526 77.7 20.526 C 77.7 20.526 81.03 22.477 82.14 23.004 C 83.152 23.492 86.191 24.546 86.191 24.546 Z " fill="rgb(128,180,255)"/><path d=" M 84.613 25.697 C 84.613 32.489 81.458 38.011 77.564 38.011 C 73.669 38.011 70.514 32.508 70.514 25.697 C 70.514 25.697 73.338 24.78 74.214 24.37 C 75.129 23.961 77.719 22.38 77.719 22.38 C 77.719 22.38 80.29 24.039 81.186 24.468 C 82.004 24.878 84.613 25.697 84.613 25.697 Z " fill="rgb(255,255,255)"/><path d=" M 82.14 28.644 L 78.985 28.644 L 78.985 25.483 L 76.123 25.483 L 76.123 28.644 L 72.968 28.644 L 72.968 31.493 L 76.123 31.493 L 76.123 34.655 L 78.985 34.655 L 78.985 31.493 L 82.14 31.493 L 82.14 28.644 Z " fill="rgb(255,102,112)"/><path d=" M 10.068 76.944 L 13.943 84.556 L 17.37 79.677 L 13.709 72.846 L 10.068 76.944 Z " fill="rgb(255,217,215)"/><path d=" M 23.505 41.27 L 23.953 32.977 L 32.93 32.977 L 35.559 42.637 L 23.505 41.27 Z " fill="rgb(255,255,255)"/><path d=" M 29.191 0.074 C 29.191 0.074 34.722 -0.004 38.519 4.777 C 42.316 9.558 42.044 10.436 41.089 13.91 C 40.135 17.384 39.493 19.452 42.122 20.955 C 44.75 22.438 44.906 24.058 45.374 25.307 C 45.86 26.556 43.874 29.62 44.497 31.123 C 46.698 36.548 46.912 39.241 46.912 39.241 L 9.308 40.412 C 9.308 40.412 8.724 33.991 9.639 31.396 C 10.263 29.639 14.079 27.044 14.372 24.917 C 14.566 23.473 12.599 19.706 13.554 17.989 C 15.287 14.847 16.864 14.847 16.299 11.412 C 15.949 9.558 17.312 -0.98 29.191 0.074 Z " fill="rgb(14,37,73)"/><path d=" M 23.738 18.848 C 23.738 18.848 24.167 29.366 23.758 29.932 C 22.395 31.825 18.325 33.503 17.39 33.738 C 16.455 33.991 31.216 47.34 31.216 47.34 L 40.31 36.353 L 37.331 33.66 C 37.331 33.66 34.819 32.391 33.728 31.259 C 32.618 30.127 32.093 19.413 32.093 19.413 L 23.738 18.848 Z " fill="rgb(255,215,215)"/><path d=" M 31.236 47.554 L 31.119 47.457 C 31.08 47.418 27.555 44.237 24.108 40.997 C 17.059 34.362 17.156 33.952 17.215 33.757 C 17.234 33.679 17.293 33.621 17.37 33.601 C 18.442 33.308 22.356 31.63 23.661 29.854 C 23.933 29.405 23.777 22.887 23.602 18.867 L 23.602 18.691 L 32.248 19.277 L 32.248 19.413 C 32.404 22.38 32.969 30.264 33.845 31.162 C 34.916 32.274 37.389 33.523 37.409 33.542 L 37.428 33.542 L 40.525 36.353 L 31.236 47.554 Z  M 17.526 33.855 C 17.994 34.909 26.036 42.422 31.197 47.106 L 40.096 36.353 L 37.234 33.777 C 36.98 33.66 34.683 32.469 33.612 31.357 C 32.54 30.244 32.015 20.858 31.937 19.55 L 23.894 19.004 C 23.972 21.111 24.284 29.464 23.894 30.01 C 22.512 31.903 18.597 33.542 17.526 33.855 Z " fill="rgb(14,37,73)"/><path d=" M 23.875 20.565 C 22.648 19.745 20.467 18.086 20.408 16.467 C 20.35 14.847 22.2 15.042 22.765 15.296 C 23.135 15.471 22.765 7.353 22.765 7.353 L 35.286 6.69 C 35.286 6.69 37.136 13.657 36.688 18.125 C 36.24 22.614 34.176 23.785 30.924 23.921 C 29.308 24 28.042 23.648 27.029 23.121 L 23.875 20.565 Z " fill="rgb(255,215,215)"/><path d=" M 30.496 24.078 C 29.21 24.078 28.003 23.804 26.952 23.258 C 26.874 23.219 26.854 23.121 26.893 23.043 C 26.932 22.965 27.029 22.946 27.107 22.985 C 28.237 23.57 29.522 23.824 30.924 23.765 C 33.982 23.629 36.104 22.614 36.552 18.106 C 36.961 14.027 35.423 7.782 35.189 6.846 L 22.959 7.509 C 22.979 7.997 23.057 9.617 23.096 11.237 C 23.193 15.237 23.037 15.335 22.92 15.413 C 22.862 15.452 22.804 15.452 22.745 15.432 C 22.414 15.276 21.557 15.14 21.032 15.491 C 20.739 15.686 20.603 16.018 20.623 16.447 C 20.681 17.989 22.765 19.609 24.011 20.428 C 24.089 20.467 24.108 20.565 24.05 20.643 C 24.011 20.721 23.914 20.74 23.836 20.682 C 22.55 19.823 20.369 18.125 20.311 16.467 C 20.292 15.764 20.603 15.413 20.856 15.237 C 21.421 14.847 22.297 14.945 22.745 15.101 C 22.901 14.359 22.765 10.046 22.648 7.353 L 22.648 7.197 L 35.442 6.514 L 35.481 6.631 C 35.501 6.709 37.331 13.676 36.883 18.125 C 36.669 20.311 36.046 21.814 35.014 22.751 C 34.098 23.57 32.852 23.98 30.983 24.058 C 30.768 24.078 30.632 24.078 30.496 24.078 Z " fill="rgb(14,37,73)"/><path d=" M 72.754 42.598 C 70.748 43.515 62.452 50.95 62.452 50.95 L 67.69 54.033 C 67.69 54.033 72.831 46.11 73.61 46.071 C 75.11 45.993 79.55 46.501 81.069 45.661 C 83.366 44.393 84.652 42.617 84.438 42.012 C 84.321 41.68 80.348 43.632 79.53 43.593 C 77.194 43.437 74.195 41.934 72.754 42.598 Z " fill="rgb(255,216,214)"/><linearGradient id="_lgradient_0" x1="0.5075245561863567" y1="1.215274023017955" x2="0.4922941421319362" y2="0.21300399722807106" gradientTransform="matrix(72.325,0,0,48.185,0,32.467)" gradientUnits="userSpaceOnUse"><stop offset="0%" stop-opacity="1" style="stop-color:rgb(255,217,230)"/><stop offset="100%" stop-opacity="1" style="stop-color:rgb(255,77,136)"/></linearGradient><path d=" M 43.621 34.421 C 48.178 38.031 55.383 54.229 56.824 53.546 C 58.187 52.902 66.327 45.33 66.327 45.33 L 72.325 49.974 C 72.325 49.974 60.368 66.855 53.416 65.723 C 48.47 64.923 43.056 52.648 43.056 52.648 L 42.277 70.446 L 19.279 70.758 L 15.657 51.262 L 10.204 61.215 L 15.521 73.763 L 10.204 80.652 C 10.204 80.652 0 70.134 0 61.215 C 0 56.414 7.731 38.636 10.983 35.318 C 13.184 33.055 16.299 32.762 17.37 32.762 C 18.48 32.762 25.296 32.098 25.686 32.762 C 25.919 33.172 30.379 41.368 30.652 41.485 C 31.528 41.875 33.222 32.547 33.222 32.547 C 35.13 32.254 42.394 33.445 43.621 34.421 Z " fill="url(#_lgradient_0)"/><linearGradient id="_lgradient_1" x1="0.5022245629160889" y1="0.9980042341542061" x2="0.4944101248114002" y2="0.48372554969645376" gradientTransform="matrix(38.157,0,0,19.827,11.672,70.173)" gradientUnits="userSpaceOnUse"><stop offset="0%" stop-opacity="1" style="stop-color:rgb(82,82,204)"/><stop offset="100%" stop-opacity="1" style="stop-color:rgb(51,31,153)"/></linearGradient><path d=" M 49.829 90 C 46.238 90 43.426 90 40.851 90 C 28.73 90 20.65 90 11.672 90 C 12.12 88.185 13.534 84.633 13.69 84.048 C 13.709 83.97 13.729 83.892 13.748 83.833 L 13.748 83.814 C 14.449 81.121 15.209 78.877 15.949 77.042 C 17.702 72.573 19.24 70.524 19.24 70.524 L 42.297 70.173 C 42.316 70.231 42.764 71.07 43.426 72.632 C 44.088 74.173 44.965 76.417 45.86 79.267 C 45.938 79.501 48.894 87.697 49.829 90 Z " fill="url(#_lgradient_1)"/><path d=" M 36.338 6.69 C 36.338 6.69 24.946 9.949 22.94 15.569 C 22.94 15.569 22.219 15.276 21.713 15.335 C 21.051 15.413 20.837 15.647 20.837 15.647 L 21.187 6.338 L 36.338 6.69 Z " fill="rgb(14,37,73)"/></g></g></svg>